<svg id="Layer_1" data-name="Layer 1" xmlns="http://www.w3.org/2000/svg" viewBox="0 0 356 356"><defs><style>.cls-1{fill:#0e272b;}.cls-2{fill:#29706f;}.cls-3{fill:#fe9f00;}.cls-3,.cls-5{fill-rule:evenodd;}.cls-4{fill:none;stroke:#29706f;stroke-width:16px;}.cls-5{fill:#f36b1f;}.cls-6{fill:#212e44;}.cls-7{fill:#f2f2f5;}</style></defs><title>pangoHB</title><g id="Artboard"><g id="pango"><g id="Group"><circle id="Oval" class="cls-1" cx="178" cy="178" r="162"/><path class="cls-2" d="M178,340.5C88.4,340.5,15.5,267.6,15.5,178S88.4,15.5,178,15.5,340.5,88.4,340.5,178,267.6,340.5,178,340.5Zm0-324C89,16.5,16.5,89,16.5,178S89,339.5,178,339.5,339.5,267.05,339.5,178,267.05,16.5,178,16.5Z" transform="translate(0 0)"/><path id="Path" class="cls-3" d="M223.87,333q-1.26-11.43-8.94-23.91-14-88.16,13.89-117c27.85-28.82,56.12-83.74,49-99.31q-3.91-10.6-31.5-8.5Q183.69,67.8,154.08,81c-29.6,13.23-52.45,38.14-61.5,65.1S69.18,235,47.89,277.6l13.49,27.82L129.05,340l55,8.45Z" transform="translate(0 0)"/><path class="cls-2" d="M178,356C79.85,356,0,276.15,0,178S79.85,0,178,0,356,79.85,356,178,276.15,356,178,356Zm0-340C88.67,16,16,88.67,16,178S88.67,340,178,340s162-72.67,162-162S267.33,16,178,16Z" transform="translate(0 0)"/><path id="Path-2" class="cls-4" d="M16,16" transform="translate(0 0)"/><path id="Path-3" class="cls-5" d="M277,91.25q12.06,20.37-19.75,64.5c-31.81,44.13-46.1,63-46.1,79.66q-17.94,12.57-21.77,23-15-35.27-45.8-49.05T111,168.11q3.82-57.86,54.78-66.71c48,1.66,44.22,20.55,97.92,5.52q15.1-3.8,12.4-14.93C275.73,89.54,276,89.3,277,91.25Z" transform="translate(0 0)"/><circle class="cls-6" cx="154.5" cy="143.5" r="11.5"/><circle class="cls-7" cx="150" cy="143" r="3"/></g></g></g></svg>