<svg id="aaba80eb-24d7-49d4-8055-b8980c85ad60" data-name="Layer 1" xmlns="http://www.w3.org/2000/svg" viewBox="0 0 356 356"><title>pangoHB2</title><circle cx="178" cy="178" r="178" style="fill:#f2f2f5"/><path d="M154.08,81q29.61-13.2,92.24,3.28,23.5836-1.7951,29.8449,5.7a1.1849,1.1849,0,0,1,.2966.3357A9.3726,9.3726,0,0,1,277.82,92.78l.002.0047q10.0612,20.4627-20.572,62.9653c-24.27,33.67-38.3306,52.63-43.6376,67.1283q-7.3149,31.8145,1.3176,86.2117,7.6314,12.401,8.9189,23.7644C290.6116,313.04,339.5,251.1218,339.5,178c0-89.05-72.45-161.5-161.5-161.5C89,16.5,16.5,89,16.5,178a160.6177,160.6177,0,0,0,32.5934,97.1338C69.72,232.6417,83.7023,172.5468,92.58,146.1,101.63,119.14,124.48,94.23,154.08,81Z" style="fill:#0e272b"/><path d="M178,16C88.67,16,16,88.67,16,178a161.1619,161.1619,0,0,0,32.8353,97.6628q.1292-.2643.2581-.529A160.6177,160.6177,0,0,1,16.5,178C16.5,89,89,16.5,178,16.5c89.05,0,161.5,72.45,161.5,161.5,0,73.1218-48.8884,135.04-115.6511,154.8544.0055.0483.0158.0973.0211.1456l-3.5824,1.39C289.1737,315.7453,340,252.704,340,178,340,88.67,267.33,16,178,16Z" style="fill:#29706f"/><path d="M277.822,92.7847l-.002-.0047a9.3726,9.3726,0,0,0-1.3585-2.4641A8.7049,8.7049,0,0,1,277,91.25C277.2958,91.75,277.5657,92.2635,277.822,92.7847Z" style="fill:#fe9f00"/><path d="M223.8489,332.8544Q222.5565,321.49,214.93,309.09q-8.64-54.4081-1.3176-86.2117A36.1793,36.1793,0,0,0,211.15,235.41q-17.94,12.57-21.77,23-15-35.27-45.8-49.05T111,168.11q3.82-57.86,54.78-66.71c48,1.66,44.22,20.55,97.92,5.52q15.1-3.8,12.4-14.93c-.2269-1.5026-.21-2.1652.0649-2.01q-6.2814-7.4844-29.8449-5.7Q183.69,67.8,154.08,81c-29.6,13.23-52.45,38.14-61.5,65.1-8.8777,26.4468-22.86,86.5417-43.4866,129.0338q-.1287.2653-.2581.529A161.901,161.901,0,0,0,220.2876,334.39L223.87,333C223.8647,332.9517,223.8544,332.9027,223.8489,332.8544Z" style="fill:#fe9f00"/><path d="M178,0C79.85,0,0,79.85,0,178S79.85,356,178,356s178-79.85,178-178S276.15,0,178,0Zm42.2876,334.39A162.1254,162.1254,0,0,1,16,178C16,88.67,88.67,16,178,16S340,88.67,340,178C340,252.704,289.1737,315.7453,220.2876,334.39Z" style="fill:#29706f"/><path d="M277.822,92.7847c-.2563-.5212-.5262-1.035-.822-1.5347a8.7049,8.7049,0,0,0-.5385-.9341,1.1849,1.1849,0,0,0-.2966-.3357c-.2753-.1554-.2918.5072-.0649,2.01q2.7,11.13-12.4,14.93c-53.7,15.03-49.92-3.86-97.92-5.52q-50.96,8.85-54.78,66.71,1.78,27.47,32.58,41.25t45.8,49.05q3.83-10.43,21.77-23a36.1793,36.1793,0,0,1,2.4624-12.5317C218.9194,208.38,232.98,189.42,257.25,155.75Q287.8895,113.2439,277.822,92.7847ZM154.5,155A11.5,11.5,0,1,1,166,143.5,11.5,11.5,0,0,1,154.5,155Z" style="fill:#f36b1f"/><path d="M154.5,132A11.5,11.5,0,1,0,166,143.5,11.5,11.5,0,0,0,154.5,132ZM150,146a3,3,0,1,1,3-3A3,3,0,0,1,150,146Z" style="fill:#212e44"/><circle cx="150" cy="143" r="3" style="fill:#f2f2f5"/></svg>