<svg id="f2878f6f-ba22-4b60-984b-ced58f509052" data-name="Layer 1" xmlns="http://www.w3.org/2000/svg" viewBox="0 0 352 352"><title>pangoHB</title><path d="M267.2071,158.2224q.425-3.4868.8616-7.0694c-.2907,2.3853-.5783,4.7449-.8813,7.0849,2.3442.2678,4.7038.5554,7.063.8429Z" transform="translate(-2 -2)" style="fill:#0e272b"/><path d="M245.7992,155.649l21.3684,2.6043c-.288,2.3634-.5761,4.7268-.8691,7.1309.293-2.4041.5811-4.7675.8889-7.1463C260.0527,157.3862,252.9379,156.519,245.7992,155.649Z" transform="translate(-2 -2)" style="fill:#0e272b"/><path d="M269.953,194.7767q.4266-3.5.8532-7c-.2845,2.3333-.5688,4.6667-.8718,7.0171,2.3956.2727,4.7725.5624,7.15.8521-.8667,7.11-1.7333,14.2208-2.6073,21.3925.874-7.1717,1.7406-14.2821,2.6282-21.4065C274.7069,195.3561,272.33,195.0664,269.953,194.7767Z" transform="translate(-2 -2)" style="fill:#0e272b"/><path d="M224.3343,95.1386c2.3337.2844,4.6673.5689,7.0187.8712.27-2.3815.5584-4.7451.8513-7.1488-.2929,2.4037-.581,4.7673-.869,7.1309Z" transform="translate(-2 -2)" style="fill:#0e272b"/><path d="M277.1257,195.6179q.4259-3.4935.8623-7.0749c-.2906,2.3843-.5784,4.7459-.8832,7.0888q7.0764.8379,14.1923,1.7133Z" transform="translate(-2 -2)" style="fill:#0e272b"/><path d="M249.1042,69.2462l7.0694.8616c-2.3852-.2907-4.7449-.5783-7.0848-.8814-.2679,2.3442-.5554,4.7039-.843,7.063C248.5334,73.93,248.8209,71.5706,249.1042,69.2462Z" transform="translate(-2 -2)" style="fill:#0e272b"/><path d="M206.2573,63.9526l-7.0694-.8616c2.3853.2907,4.7449.5783,7.0849.8814.2678-2.3443.5554-4.7039.8429-7.063C206.8282,59.2685,206.5406,61.6281,206.2573,63.9526Z" transform="translate(-2 -2)" style="fill:#0e272b"/><path d="M213.2892,64.8453c-2.3337-.2844-4.6673-.5688-7.0164-.8729-.2743,2.3967-.564,4.7736-.8537,7.1505l.8691-7.1308Z" transform="translate(-2 -2)" style="fill:#0e272b"/><path d="M298.3262,140.379l7.0749.8623c-2.3843-.2906-4.7459-.5784-7.0888-.8832q-.8379,7.0764-1.7133,14.1923C297.1767,149.81,297.7537,145.0757,298.3262,140.379Z" transform="translate(-2 -2)" style="fill:#0e272b"/><path d="M197.4192,77.3847q-7.1308-.8691-14.28-1.7561c-.27,2.3776-.5573,4.7372-.8544,7.1749l.8723-7.157Z" transform="translate(-2 -2)" style="fill:#0e272b"/><path d="M242.0724,68.3534c2.3336.2844,4.6673.5688,7.0164.873.2742-2.3967.5639-4.7736.8536-7.1506l-.8691,7.1309Z" transform="translate(-2 -2)" style="fill:#0e272b"/><path d="M231.3708,96.0278l21.3229,2.5988Q241.9824,97.3211,231.353,96.01c-.2663,2.3494-.5543,4.7119-.8411,7.0653C230.7987,100.7217,231.0867,98.3592,231.3708,96.0278Z" transform="translate(-2 -2)" style="fill:#0e272b"/><path d="M269.5968,78.9448c-.2947,2.4176-.5818,4.7743-.8878,7.1455,2.3754.2726,4.732.56,7.15.8545l-7.1309-.8691C269.015,83.7191,269.3021,81.3624,269.5968,78.9448Z" transform="translate(-2 -2)" style="fill:#0e272b"/><path d="M57.9745,212.3975l7.0694.8617c-2.3852-.2908-4.7449-.5784-7.0848-.8814-.2679,2.3442-.5555,4.7039-.843,7.063C57.4036,217.0817,57.6912,214.722,57.9745,212.3975Z" transform="translate(-2 -2)" style="fill:#0e272b"/><path d="M50.8127,211.489c2.377.29,4.754.5794,7.1464.8888.2721-2.3793.56-4.7388.8536-7.1506-.2939,2.4118-.5815,4.7713-.8691,7.1308Z" transform="translate(-2 -2)" style="fill:#0e272b"/><path d="M291.1279,139.499q-.4248,3.4866-.8615,7.0693c.2907-2.3852.5783-4.7449.8813-7.0848-2.3442-.2679-4.7039-.5555-7.063-.843Z" transform="translate(-2 -2)" style="fill:#0e272b"/><path d="M121.587,46.4321q-.4344,3.5654-.869,7.1308-3.5655-.4344-7.1309-.8691c2.377.29,4.7539.5795,7.1463.8889C121.0076,51.186,121.2974,48.809,121.587,46.4321Z" transform="translate(-2 -2)" style="fill:#0e272b"/><path d="M271.544,122.6385l7.0694.8616c-2.3853-.2907-4.7449-.5783-7.1328-.905l-6.96-.8483C266.8513,122.0309,269.1822,122.3149,271.544,122.6385Z" transform="translate(-2 -2)" style="fill:#0e272b"/><path d="M268.69,86.1049q-.86,7.0528-1.7307,14.2.8707-7.1446,1.7494-14.2149-7.0809-.8376-14.1933-1.7129Z" transform="translate(-2 -2)" style="fill:#0e272b"/><path d="M294.6749,110.9484l-7.1619-.8729q1.3037-10.6964,2.6072-21.3925-1.3035,10.6962-2.627,21.408C289.8738,110.3632,292.2346,110.651,294.6749,110.9484Z" transform="translate(-2 -2)" style="fill:#0e272b"/><path d="M291.1675,139.468c.2872-2.3566.5744-4.7132.8691-7.1308-.2947,2.4176-.5819,4.7742-.8889,7.1463,2.3967.2743,4.7737.5639,7.1646.8746.2757-2.3979.5654-4.7748.8551-7.1518l-.8691,7.1308Q294.733,139.9026,291.1675,139.468Z" transform="translate(-2 -2)" style="fill:#0e272b"/><path d="M287.4735,110.1064l-.8616,7.0694c.2907-2.3852.5783-4.7449.8813-7.0848-2.3442-.2679-4.7038-.5555-7.063-.843Z" transform="translate(-2 -2)" style="fill:#0e272b"/><path d="M218.1578,145.0048q.8586-7.0451,1.73-14.1947-.8708,7.1449-1.7485,14.2117c2.3476.2668,4.7091.5547,7.0645.8417Z" transform="translate(-2 -2)" style="fill:#0e272b"/><path d="M216.3825,159.3005l-14.2617-1.7382q7.1308.8691,14.2772,1.758c.5639-4.7737,1.1433-9.5276,1.7413-14.2985-2.3752-.27-4.7318-.5574-7.1494-.8521l7.1308.8691Z" transform="translate(-2 -2)" style="fill:#0e272b"/><path d="M183.1219,75.6107l-21.3228-2.5989q10.7112,1.3055,21.34,2.6168c.2664-2.3494.5544-4.7119.8412-7.0653C183.694,70.9167,183.406,73.2792,183.1219,75.6107Z" transform="translate(-2 -2)" style="fill:#0e272b"/><path d="M216.4135,159.34l7.0693.8616c-2.3852-.2907-4.7449-.5783-7.0848-.8813-.2679,2.3441-.5555,4.7038-.8429,7.0629C215.8425,164.0241,216.13,161.6644,216.4135,159.34Z" transform="translate(-2 -2)" style="fill:#0e272b"/><path d="M269.9159,194.8107q-.8588,7.0451-1.73,14.1947.8707-7.145,1.7485-14.2117c-2.3476-.2668-4.7091-.5547-7.0645-.8417Z" transform="translate(-2 -2)" style="fill:#0e272b"/><path d="M120.7488,53.6024l7.0694.8617c-2.3852-.2908-4.7449-.5784-7.0848-.8814-.2678,2.3442-.5554,4.7039-.843,7.063C120.178,58.2866,120.4656,55.9269,120.7488,53.6024Z" transform="translate(-2 -2)" style="fill:#0e272b"/><path d="M178,16C88.6729,16,16,88.6729,16,178S88.6729,340,178,340s162-72.6729,162-162S267.3271,16,178,16ZM317.2617,222.2529l-7.1309-.8691c-.8661,7.1062-1.7322,14.2123-2.6072,21.3926l-7.1309-.8691c-.5766,4.7306-1.1531,9.4613-1.7382,14.2617l-7.1309-.8691-.8691,7.1308c-.2872,2.3567-.5744,4.7133-.869,7.1309l-7.1309-.8691c-.2872,2.3566-.5745,4.7133-.8691,7.1309l-7.1308-.8691c-.2873,2.3566-.5745,4.7132-.8692,7.1308l-7.1308-.8691c-.5771,4.7347-1.1541,9.4694-1.7358,14.2418l-7.1074-.8662c-.2908,2.3861-.5773,4.7366-.8716,7.1508l-14.2851-1.7411-.869,7.1308-7.1309-.869c-.2878,2.3615-.5757,4.7231-.8674,7.1164l-14.2382-1.7354c-.29,2.3807-.5767,4.7312-.8709,7.1453l-14.2852-1.741-.8538,7.0064c-1.15.0554-80.7482-9.5634-85.58-10.3451q.4316-3.5409.8641-7.09L97.4305,304.012c.2936-2.409.5813-4.77.8691-7.1309l-7.1309-.8691-7.1136-.867c.2911-2.3887.5737-4.7074.8659-7.1047l-7.1481-.8712.8723-7.157-7.1309-.8691-7.1308-.8691c.2946-2.4176.5818-4.7742.8691-7.1308l-7.1309-.8691c.2947-2.4176.5819-4.7742.8691-7.1309L51.86,262.274c.2947-2.4176.5819-4.7742.8692-7.1308q.4344-3.5655.869-7.1309l-7.1308-.8691c.5851-4.8,1.1616-9.5311,1.7382-14.2617l-6.99-.852a.56.56,0,0,1-.0813-.0864.1872.1872,0,0,1-.0359-.1071q1.29-10.6083,2.5838-21.2162l-6.99-.8519a.5688.5688,0,0,1-.0812-.0864.1861.1861,0,0,1-.0359-.1072q1.29-10.6083,2.5837-21.2161l7.1309.8691.8691-7.1309.8691-7.1308c.5765-4.7307,1.1531-9.4613,1.7382-14.2617l7.1308.869.8533-7.0009a.5814.5814,0,0,1,.0937-.0772.2011.2011,0,0,1,.11-.0281c2.2874.2768,4.5745.5558,6.9433.8445-.2929,2.4036-.581,4.7672-.8691,7.1309l-.8691,7.1308,7.1309.8691-1.7383,14.2617q-.4344,3.5655-.869,7.1309l7.1308.8691c-.2947,2.4175-.5818,4.7742-.8691,7.1308l-.8691,7.1309,7.1309.8691c-.2947,2.4176-.5819,4.7742-.8691,7.1308l7.1308.8691c-.2946,2.4176-.5818,4.7742-.869,7.1309q-.4347,3.5653-.8692,7.1308l7.1309.8691-.8691,7.1309,7.1309.869,7.1308.8692c-.2947,2.4175-.5818,4.7742-.8691,7.1308l7.1309.8691c-.2947,2.4176-.5819,4.7743-.8691,7.1309l7.1308.8691,14.2617,1.7382c-.2939,2.4118-.5814,4.7713-.869,7.1308l35.6542,4.3455c.2876-2.36.5752-4.719.8691-7.1309l14.2618,1.7382,7.0009.8533a.581.581,0,0,0,.0974-.0724.201.201,0,0,0,.0537-.1c.2806-2.287.5592-4.5741.8479-6.9429l7.1309.8691c.2872-2.3567.5744-4.7133.869-7.1309l7.1309.8691c.2872-2.3566.5745-4.7133.8691-7.1309l7.1308.8692q.4347-3.5655.8691-7.1309c.2872-2.3566.5745-4.7133.8691-7.1309l7.1309.8691,1.7382-14.2617q1.3035-10.6962,2.6073-21.3926l-7.1309-.869-.8533,7.0009a.5762.5762,0,0,1-.0937.0772.201.201,0,0,1-.11.0281c-2.2874-.2768-4.5745-.5558-6.9433-.8445l-.8692,7.1309c-.2871,2.3566-.5744,4.7132-.8691,7.1309l-7.1308-.8692c-.2872,2.3567-.5744,4.7133-.8691,7.1309l-7.1308-.8691-.8533,7.001a.5807.5807,0,0,1-.0937.0771.2023.2023,0,0,1-.11.0282c-2.2873-.2769-4.5745-.5558-6.9433-.8445.293-2.4037.581-4.7673.8691-7.1309l2.6073-21.3926-7.1309-.869c.2947-2.4176.5819-4.7743.8691-7.1309q.4346-3.5655.8692-7.1309l-7.0038-.8536c-.0208-.3866.2078-2.691.5406-5.68-.0218-.0374-.0393-.0771-.0613-.1144a8.7278,8.7278,0,0,0-.5385-.9341,9.3838,9.3838,0,0,1,.6123.9362c.6029-5.4033,1.5379-12.9777,1.97-15.6107l7.0884.8639.8691-7.1309c.2872-2.3566.5744-4.7133.8691-7.1309l7.1309.8692q.4344-3.5655.869-7.1309l-7.1308-.8691c.2947-2.4176.5819-4.7742.8691-7.1309s.5744-4.7132.8691-7.1308l-7.1308-.8691-7.1309-.8691c-.2947,2.4176-.5819,4.7742-.8691,7.1309s-.5745,4.7132-.8691,7.1308l-7.1309-.8691c-.2872,2.3567-.5744,4.7133-.8691,7.1309l-7.1308-.8691c-.2873,2.3566-.5745,4.7133-.8691,7.1308l-7.1309-.8691-.8534,7.0027c-1.0531.0591-10.5134-1.0341-14.2721-1.6532q.4314-3.5394.8638-7.0877l-7.001-.8532a.586.586,0,0,1-.0771-.0937.2011.2011,0,0,1-.0281-.11c.2768-2.2874.5557-4.5745.8445-6.9433l7.1308.8691,7.1309.8691.8691-7.1309c.2872-2.3566.5744-4.7133.8691-7.1308l7.1308.8691,1.7382-14.2618.8691-7.1308-14.2617-1.7382c-.2872,2.3567-.5744,4.7133-.8691,7.1309l-7.1308-.8691c-.5766,4.7307-1.1532,9.4612-1.7382,14.2617l-7.1309-.8691c-.5765,4.7306-1.1531,9.4613-1.7382,14.2617l-7.1308-.8691c-.2873,2.3566-.5745,4.7133-.8692,7.1309l-7.1308-.8692c-.2872,2.3567-.5744,4.7134-.8691,7.1309l-7.1309-.8691c-.2872,2.3566-.5744,4.7133-.869,7.1309l-7.1309-.8691-7.1309-.8691c.2947-2.4176.5819-4.7742.8691-7.1309q.4347-3.5655.8692-7.1308c.2872-2.3567.5744-4.7133.869-7.1309l-7.1308-.8691q.8691-7.1307,1.7382-14.2617.4346-3.5654.8691-7.1308l-7.0045-.8537c-.0576-1.1,2.6892-24.2318,3.3919-28.5338l7.089.864q.8691-7.1308,1.7381-14.2617c.2873-2.3566.5745-4.7132.8692-7.1308,2.4175.2946,4.7741.5819,7.1308.869.2872-2.3566.5744-4.7132.8691-7.1308l7.1309.8691.869-7.1308,7.1309.869c.2872-2.3566.5745-4.7132.8691-7.1308l7.1308.8691,7.1309.8691c.2872-2.3566.5745-4.7133.8691-7.1309l7.1308.8691,7.1309.8691c.2876-2.3595.5751-4.719.8691-7.1309L158.98,36.5159q.427-3.5031.8539-7.0062c1.1433-.0557,66.55,7.8344,71.3188,8.6069q-.4316,3.5408-.8641,7.09l21.3925,2.6073c-.2936,2.4089-.5813,4.77-.8691,7.1308l14.2617,1.7383c-.2939,2.4118-.5815,4.7713-.869,7.1308l7.1308.8691,7.1308.8691c-.2946,2.4176-.5818,4.7742-.8691,7.1308l7.1309.8691c-.2946,2.4176-.5818,4.7743-.8691,7.1309l7.1309.8691c-.2947,2.4176-.5819,4.7742-.8692,7.1309l7.0115.8545a.5918.5918,0,0,1,.07.0969.2158.2158,0,0,1,.024.1111q-.41,3.3808-.82,6.7613c-.0042.0342.0224.0722.05.1539l7.0365.8575c-.5816,4.7718-1.1581,9.5018-1.74,14.2741l7.1436.8706c-.2919,2.3947-.5788,4.7488-.8707,7.144l7.1427.8706c-.5831,4.784-1.161,9.5255-1.7389,14.267l-.8691,7.1308,7.1309.8691-1.7382,14.2617-.8691,7.1309,6.999.853a.5723.5723,0,0,1,.0779.0924.1991.1991,0,0,1,.03.1093q-3.0279,24.8654-6.0593,49.73C317.8436,217.4787,317.5563,219.8353,317.2617,222.2529Z" transform="translate(-2 -2)" style="fill:#0e272b"/><path d="M160.0662,87.27q.4249-3.4866.8616-7.0694c-.2907,2.3853-.5783,4.745-.8814,7.0849,2.3442.2678,4.7039.5554,7.063.843Z" transform="translate(-2 -2)" style="fill:#0e272b"/><path d="M214.9665,289.3569l-14.1947-1.73q7.1451.8707,14.2117,1.7485c.2669-2.3476.5547-4.7092.8418-7.0645C215.5382,284.6663,215.25,287.0279,214.9665,289.3569Z" transform="translate(-2 -2)" style="fill:#0e272b"/><path d="M229.1288,291.116q-7.0641-.861-14.1453-1.74c-.85,7.1345-1.7176,14.25-2.59,21.4111.8727-7.1606,1.74-14.2766,2.6073-21.3926Z" transform="translate(-2 -2)" style="fill:#0e272b"/><path d="M152.8958,86.4318l7.1309.8692-.8691,7.1308c.29-2.3769.5794-4.7539.8888-7.1463C157.65,87.0112,155.2728,86.7216,152.8958,86.4318Z" transform="translate(-2 -2)" style="fill:#0e272b"/><path d="M178,2C80.9531,2,2,80.9531,2,178S80.9531,354,178,354s176-78.9531,176-176S275.0469,2,178,2Zm0,338C88.6729,340,16,267.3271,16,178S88.6729,16,178,16,340,88.6729,340,178,267.3271,340,178,340Z" transform="translate(-2 -2)" style="fill:#29706f"/><path d="M177.32,176.7656a8.7278,8.7278,0,0,1,.5385.9341c.022.0373.0395.077.0613.1144l.0125-.1123A9.3838,9.3838,0,0,0,177.32,176.7656Z" transform="translate(-2 -2)" style="fill:#fe9f00"/><path d="M68.7232,242.6668q-1.3,10.6688-2.6016,21.3454l7.0112.8545a.5906.5906,0,0,0,.0919-.0772.2155.2155,0,0,0,.05-.1022q.849-6.945,1.6965-13.89c.0042-.0343.0387-.0649.0847-.1378l7.0373.8577c.2918-2.3944.5787-4.7485.8692-7.1316l7.1441.8707c-.2859,2.3462-.5728,4.7-.8648,7.0956l7.1423.87c-.8728,7.1609-1.74,14.2791-2.6079,21.3972q7.1308.8693,14.2617,1.7382l.8532-7.0009a.5821.5821,0,0,1,.0938-.0772.2011.2011,0,0,1,.11-.0281c2.2873.2769,4.5744.5558,6.9433.8445-.293,2.4036-.5811,4.7672-.8691,7.1308l21.3825,2.6061c-.2918,2.394-.5748,4.7166-.8635,7.0849l7.1359.87c.2868-2.3531.57-4.6758.8582-7.0414l7.053.86c-.0155-.0183.0168.01.0354.0445a.2011.2011,0,0,1,.0281.11c-.2768,2.2873-.5558,4.5744-.8445,6.9433l7.1309.869q.4267-3.5019.8536-7.0037c1.0443-.0563,10.7427,1.0667,14.2716,1.6567l-1.7326,14.2161,7.0038.8536a.5879.5879,0,0,0,.0968-.0745.2062.2062,0,0,0,.0519-.1009c.57-4.6632,1.1383-9.3266,1.7116-14.03l14.2228,1.7334c.581-4.7676,1.1573-9.4962,1.7385-14.2647l14.2662,1.7387c.2915-2.3913.5782-4.7443.87-7.1353l21.3686,2.6043c.5808-4.7664,1.1571-9.4944,1.7385-14.2646l-7.0169-.8553c.2917-2.3933.5783-4.7453.87-7.14l7.0589.86c.2916-2.3928.5784-4.7462.8683-7.1248l14.2677,1.7389c-.2865,2.351-.5734,4.7043-.8628,7.08l7.0978.865c.2844-2.3338.5676-4.6567.8451-6.934a1.1594,1.1594,0,0,1,.1446-.1165.2059.2059,0,0,1,.11-.0262c4.6636.5667,9.327,1.1351,14.0713,1.7134.5827-4.7816,1.16-9.5217,1.7381-14.2618l-7.1308-.869q-.4266,3.5-.8533,7.0009a.57.57,0,0,1-.0936.0772.2016.2016,0,0,1-.11.0281c-2.2873-.2768-4.5744-.5558-6.9433-.8445.293-2.4036.5811-4.7672.8691-7.1309l-7.0108-.8544a.59.59,0,0,0-.0923.0772.2167.2167,0,0,0-.05.1022q-.4146,3.38-.8276,6.7607c-.0042.0341-.0393.0645-.0822.1312l-14.1389-1.7233,1.7313-14.2062,14.194,1.73c.2918-2.3944.5787-4.7485.8684-7.1252l14.274,1.74q-.4344,3.5646-.8661,7.1065l7.1309.8691c-.2947,2.4176-.5819,4.7742-.8692,7.1308l7.0028.8535a.58.58,0,0,0,.097-.0737.2043.2043,0,0,0,.0526-.1c.2806-2.2872.5592-4.5746.8476-6.9411L295,226.7765l.8691-7.1309-21.3925-2.6073c.874-7.1717,1.7406-14.2821,2.6073-21.3925-2.377-.29-4.7539-.5794-7.15-.8521q-.8865,7.0705-1.7485,14.2117l-7.046-.8587c.5742-4.7113,1.15-9.434,1.73-14.1947,2.3554.287,4.7169.5749,7.0645.8417.303-2.35.5873-4.6838.8718-7.0171a.58.58,0,0,0-.0718-.0976.2.2,0,0,0-.0994-.0542c-2.2868-.2807-4.5738-.5592-6.9022-.843q.8658-7.1034,1.7162-14.0812a1.1526,1.1526,0,0,0-.1056-.15.1971.1971,0,0,0-.0984-.0559c-2.2871-.2808-4.5743-.5593-6.9039-.8433l.859-7.0479c-.0168.0139.0115-.0181.0468-.0365a.2038.2038,0,0,1,.11-.0269c2.287.2769,4.5737.5558,6.9415.8444.293-2.4041.5811-4.7675.8691-7.1309l-21.3684-2.6043c.2922-2.3972.5752-4.72.8637-7.0867l6.9279.8443a1.1829,1.1829,0,0,0,.1512-.11.2007.2007,0,0,0,.0541-.1c.57-4.6628,1.1383-9.3259,1.7119-14.0316l6.9594.8482a1.1616,1.1616,0,0,0,.1467-.1121.2065.2065,0,0,0,.0516-.1009c.28-2.287.5591-4.5741.8474-6.94l-14.2617-1.7382L247.53,141.2509a.5758.5758,0,0,1-.0914.0785.1956.1956,0,0,1-.1089.0306c-4.6638-.5664-9.3273-1.1349-14.0342-1.7086-.2874,2.3575-.57,4.68-.8591,7.0489-.0137-.0186.006.0192.0358.0455a.2038.2038,0,0,0,.1005.0526c2.2872.2806,4.5745.5593,6.9411.8477-.5829,4.7825-1.1606,9.5221-1.7382,14.2617l14.13,1.7221c.0658,1.0466-1.0072,10.3548-1.6493,14.2726l-7.0885-.8639c-.2871,2.3566-.5744,4.7132-.8691,7.1308l-7.1308-.869L233.43,197.5621l7.0009.8532a.5777.5777,0,0,0,.0975-.0724.2021.2021,0,0,0,.0537-.1c.2806-2.2869.5592-4.5741.8429-6.902l7.0924.8645q-.4221,3.4632-.86,7.0539l7.11.8666c-.2914,2.3914-.578,4.7429-.8734,7.1668l-21.3337-2.6c-.5766,4.7307-1.1531,9.4613-1.7382,14.2617l-7.1308-.8691-1.7382,14.2617c-.2872,2.3567-.5745,4.7133-.8691,7.1309l-7.1309-.8691q-.4346,3.5655-.8691,7.1309c-.2872,2.3566-.5744,4.7132-.8691,7.1308l-7.1308-.8691c-.2872,2.3566-.5745,4.7133-.8691,7.1308l-7.1308-.869-7.1309-.8691c-.2887,2.3688-.5673,4.6559-.8479,6.9429a.201.201,0,0,1-.0537.1.581.581,0,0,1-.0974.0724l-7.0009-.8533c-.2876,2.36-.5752,4.7191-.8692,7.1309l-14.2617-1.7382-35.6542-4.3455-14.2618-1.7382c.294-2.4118.5816-4.7713.8691-7.1308l-7.1308-.8691-7.1309-.8692c.2947-2.4175.5819-4.7741.8691-7.1308l-7.1308-.8691c.2946-2.4175.5818-4.7742.8691-7.1309l-7.1309-.869L83.86,237.227c.2947-2.4176.582-4.7742.8691-7.1309q.4347-3.5653.8692-7.1308l-7.1309-.8691c-.5773,4.7363-1.1545,9.4727-1.7382,14.2617l-28.5234-3.4764c-.5766,4.7306-1.1531,9.4613-1.7382,14.2617l7.1308.8691q.4269-3.5022.8537-7.0044C55.4957,240.9532,65.3207,242.0923,68.7232,242.6668Z" transform="translate(-2 -2)" style="fill:#fa7700"/><path d="M249.0888,69.2264c2.34.3031,4.7.5907,7.0848.8814-.2868,2.3535-.5694,4.6721-.8584,7.0432l-7.0694-.8616c.2876-2.3591.5751-4.7188.843-7.063-2.3491-.3042-4.6828-.5886-7.0164-.873a.5769.5769,0,0,0-.0974.0724.2024.2024,0,0,0-.0537.1c-.2806,2.2868-.5592,4.574-.8479,6.9428l-7.1309-.8691c-.2872,2.3567-.5744,4.7133-.8691,7.1309l-7.1308-.8691-.8533,7.001a.5851.5851,0,0,0,.0724.0974.2.2,0,0,0,.1.0536c2.2868.2807,4.574.5592,6.9428.8479-.2929,2.4037-.581,4.7673-.8513,7.1488q10.6336,1.32,21.3407,2.6168c-.2867,2.352-.57,4.6734-.859,7.0473l-21.3228-2.5988c.2868-2.3534.5748-4.7159.8411-7.0653-2.3514-.3023-4.685-.5868-7.0187-.8712a.5829.5829,0,0,0-.0974.0725.2.2,0,0,0-.0537.1c-.2807,2.2869-.5592,4.574-.8479,6.9429l-7.1309-.8691c-.2877,2.3608-.5754,4.7215-.8668,7.112l14.2306,1.7344c-.29,2.3776-.5761,4.7273-.8714,7.15l7.162.8728.8533-7.0009a.5851.5851,0,0,1,.0936-.0772.2016.2016,0,0,1,.11-.0281c2.2873.2768,4.5744.5558,6.9433.8445-.293,2.4036-.5811,4.7672-.8691,7.1309l7.1308.8691c-.2946,2.4175-.5819,4.7742-.8691,7.1308l14.2617,1.7382c-.2883,2.3656-.5669,4.6527-.8474,6.94a.2065.2065,0,0,1-.0516.1009,1.1616,1.1616,0,0,1-.1467.1121l-6.9594-.8482c-.5736,4.7057-1.1418,9.3688-1.7119,14.0316a.2007.2007,0,0,1-.0541.1,1.1829,1.1829,0,0,1-.1512.11l-6.9279-.8443c-.2885,2.3668-.5715,4.69-.8637,7.0867,7.1387.87,14.2535,1.7372,21.3882,2.5889.303-2.34.5906-4.7.8813-7.0849l7.0432.8584c-.285,2.3387-.5711,4.6862-.8615,7.0694-2.3592-.2875-4.7188-.5751-7.063-.8429-.3078,2.3788-.5959,4.7422-.8889,7.1463-2.3678-.2886-4.6545-.5675-6.9415-.8444a.2038.2038,0,0,0-.11.0269c-.0353.0184-.0636.05-.0468.0365l-.859,7.0479c2.33.284,4.6168.5625,6.9039.8433a.1971.1971,0,0,1,.0984.0559,1.1526,1.1526,0,0,1,.1056.15q-.85,6.9739-1.7162,14.0812c2.3284.2838,4.6154.5623,6.9022.843a.2.2,0,0,1,.0994.0542.58.58,0,0,1,.0718.0976q-.4267,3.5-.8532,7c2.377.29,4.7539.5794,7.1518.8551.3048-2.3429.5926-4.7045.8832-7.0888l14.1714,1.7272c-.2856,2.3433-.5719,4.6927-.8623,7.0749q-7.11-.8665-14.1923-1.7133c-.8876,7.1244-1.7542,14.2348-2.6282,21.4065l21.3925,2.6073c.8661-7.1061,1.7322-14.2123,2.6073-21.3925l7.1308.869q.4269-3.502.8553-7.0175a.6221.6221,0,0,1,.0943-.063.2224.2224,0,0,1,.1107-.0254c2.2879.2771,4.5755.5561,6.94.8442q1.7438-14.3074,3.4764-28.5234l.8691-7.1309-7.1309-.8691c.5851-4.8,1.1617-9.531,1.7382-14.2617l.8691-7.1308q-7.1308-.8691-14.2617-1.7382c-.29,2.377-.5794,4.7539-.8551,7.1518,2.3429.3048,4.7045.5926,7.0888.8832-.5768,4.7315-1.1488,9.4252-1.7272,14.1714l-7.0749-.8623q.8666-7.11,1.7133-14.1923c-2.3909-.3107-4.7679-.6-7.1646-.8746-.303,2.34-.5906,4.7-.8813,7.0848l-7.0433-.8584c.285-2.3387.5712-4.6862.8616-7.0694,2.3591.2875,4.7188.5751,7.063.843.307-2.3721.5942-4.7287.8889-7.1463l7.1308.8691c.5769-4.7332,1.1538-9.4664,1.7351-14.2363l-7.1-.8653c.2906-2.3842.577-4.7339.8722-7.1563-2.44-.2974-4.8011-.5852-7.1817-.8574-.303,2.34-.5906,4.7-.8813,7.0848l-7.0432-.8584c.285-2.3387.5711-4.6862.8615-7.0694,2.3592.2875,4.7188.5751,7.063.843q1.3333-10.72,2.627-21.408l-7.1308-.8692c.2947-2.4175.5819-4.7741.8691-7.1308l-7.1308-.8691c-.2873,2.3566-.5745,4.7133-.8691,7.1309-2.4176-.2947-4.7742-.5819-7.15-.8545q-.8877,7.0747-1.7494,14.2149l-7.0771-.8626c.2853-2.341.5718-4.6918.8629-7.08l-7.0976-.865.8679-7.1205q7.1062.8661,14.1933,1.7129c.306-2.3712.5931-4.7279.8878-7.1455l7.1309.8691q.4344-3.5654.869-7.1309l-7.1308-.869-7.1309-.8691c.2947-2.4176.5819-4.7742.8692-7.1309l-14.2618-1.7382C249.6527,64.4528,249.363,66.83,249.0888,69.2264Zm39.4858,91.6785,21.2866,2.5944c-.016-.0179.0166.0088.0361.0429a.1949.1949,0,0,1,.0312.1087c-.2768,2.2882-.5558,4.5762-.84,6.9059l-14.0874-1.717a1.1609,1.1609,0,0,0-.1475.1094.2033.2033,0,0,0-.0532.1c-.57,4.6629-1.1383,9.3261-1.7117,14.031l-7.1114-.8667ZM266.114,107.5206l7.0984.8652q-.8665,7.11-1.7318,14.2093c2.3879.3267,4.7475.6143,7.1328.905-.2869,2.3536-.57,4.6722-.8585,7.0433l-7.0693-.8616c.2875-2.3591.5751-4.7188.8584-7.0433-2.3618-.3236-4.6927-.6076-7.0236-.8917a.5772.5772,0,0,1-.08-.088.19.19,0,0,1-.0341-.1078C264.9718,116.8915,265.54,112.2323,266.114,107.5206Z" transform="translate(-2 -2)" style="fill:#fc9100"/><path d="M301.1735,234.8089a.2021.2021,0,0,0-.1-.0537c-2.2869-.2806-4.574-.5592-6.9429-.8479.293-2.4036.5811-4.7672.8691-7.1308l-14.2617-1.7382c-.2884,2.3665-.567,4.6539-.8476,6.9411a.2043.2043,0,0,1-.0526.1.58.58,0,0,1-.097.0737l-7.0028-.8535c-.5777,4.74-1.1554,9.48-1.7381,14.2618-4.7443-.5783-9.4077-1.1467-14.0713-1.7134a.2059.2059,0,0,0-.11.0262,1.1594,1.1594,0,0,0-.1446.1165c-.2775,2.2773-.5607,4.6-.8451,6.934l-7.0978-.865c.2894-2.3756.5763-4.7289.8628-7.08l-14.2677-1.7389c-.29,2.3786-.5767,4.732-.8683,7.1248l-7.0589-.86c-.2919,2.3945-.5785,4.7465-.87,7.14l7.0169.8553c-.5814,4.77-1.1577,9.4982-1.7385,14.2646l-21.3686-2.6043c-.2915,2.391-.5782,4.744-.87,7.1353l-14.2662-1.7387c-.5812,4.7685-1.1575,9.4971-1.7385,14.2647l-14.2228-1.7334c-.5733,4.7037-1.1415,9.3671-1.7116,14.03a.2062.2062,0,0,1-.0519.1009.5879.5879,0,0,1-.0968.0745l-7.0038-.8536c-.2873,2.3567-.5744,4.7133-.8691,7.1309l-7.1309-.8692q-.4262,3.4979-.8526,6.9955c.9941.3236,8.3715,1.2817,14.232,1.8455.286-2.3468.5726-4.6981.8625-7.0762l14.25,1.7366c-.2842,2.3323-.5708,4.6836-.8657,7.1025l14.29,1.7416.8537-7.0037a.5772.5772,0,0,1,.0956-.0762.2064.2064,0,0,1,.11-.0261c2.2877.277,4.5753.556,6.94.8442.8727-7.1606,1.74-14.2766,2.59-21.4111q-7.0705-.8865-14.2117-1.7485c.2867-2.3526.5695-4.6731.8588-7.046l14.1947,1.73c-.2871,2.3553-.5749,4.7169-.8418,7.0645q7.09.8888,14.1453,1.74a.5831.5831,0,0,0,.0982-.07.1958.1958,0,0,0,.0558-.0984c.2809-2.2876.5595-4.5755.8485-6.9464l7.1308.8691q1.2957-10.63,2.5911-21.2591a.5772.5772,0,0,1,.0914-.0786.1957.1957,0,0,1,.109-.0306c7.0406.8562,14.0811,1.7144,21.165,2.5778.5769-4.7343,1.15-9.4331,1.7213-14.1239,1.1213-.0671,17.1965,1.8222,21.4478,2.5167q-.4315,3.54-.864,7.0888,3.5653.4347,7.1308.8691l.8691-7.1308c.5766-4.7306,1.1532-9.4613,1.7382-14.2617l7.1309.8691.8533-7.001A.587.587,0,0,0,301.1735,234.8089Z" transform="translate(-2 -2)" style="fill:#fc9100"/><path d="M98.6061,116.0431l-6.97-.8495c-.0663-1.1074.9739-10.14,1.638-14.2739l7.01.8544c-.0155-.0182.0167.01.0353.0445a.2014.2014,0,0,1,.0282.11c-.2769,2.2874-.5558,4.5744-.8445,6.9433l7.1308.8691c.2873-2.3567.5745-4.7133.8691-7.1308l7.1309.869c.5771-4.7352,1.1542-9.47,1.7382-14.2617l21.3925,2.6073,1.7382-14.2617q-7.0647-.861-14.1294-1.722a.5664.5664,0,0,0-.098.0706.1981.1981,0,0,0-.0551.0989c-.2808,2.2877-.5595,4.5756-.8433,6.9042l-7.0161-.8551c-.0414-.9995,1.1435-11.1709,1.6682-14.2287l21.3428,2.6012c.8661-7.1061,1.7322-14.2123,2.6073-21.3925l7.1309.869c.2872-2.3566.5744-4.7132.8691-7.1308l-7.1309-.8691-7.1309-.8691c-.2872,2.3567-.5744,4.7133-.869,7.1309l-7.1309-.8691-7.1309-.8691c-.29,2.3769-.5794,4.7539-.8536,7.1506,2.34.303,4.7.5906,7.0848.8814-.2868,2.3535-.5694,4.6721-.8584,7.0432l-7.0694-.8616c.2876-2.3591.5752-4.7188.843-7.063-2.3924-.3094-4.7693-.5991-7.1463-.8889-.2872,2.3567-.5745,4.7133-.8691,7.1309l-7.1308-.8691c-.2873,2.3567-.5745,4.7133-.8691,7.1309l-7.1309-.8692c-.2872,2.3567-.5744,4.7134-.8691,7.1309l-7.1309-.8691q-.8689,7.1308-1.7381,14.2617-1.7384,14.2619-3.4764,28.5235-.4347,3.5653-.8691,7.1308l14.2386,1.7354C98.0347,120.7313,98.3177,118.409,98.6061,116.0431ZM95.8882,79.5055l7.0473.8589c-.5746,4.7145-1.147,9.4113-1.7252,14.1548.0171-.0149-.01.0175-.0447.0365a.1978.1978,0,0,1-.1091.03c-2.2876-.2768-4.575-.5558-6.9039-.84C94.73,89.01,95.3022,84.3132,95.8882,79.5055Z" transform="translate(-2 -2)" style="fill:#fc9100"/><path d="M204.9062,194.0857l-7-.8532a.584.584,0,0,1-.0776-.0929.2.2,0,0,1-.0289-.1094c.2768-2.2873.5557-4.5743.8395-6.9028l-6.9975-.8528c-.0578-1.1162,1.01-10.3569,1.6436-14.272l7.0089.8542c-.0148-.0175.0173.01.036.0455a.2036.2036,0,0,1,.0277.11c-.2768,2.287-.5558,4.5738-.8394,6.9016l14.1751,1.7277c-.0179.0125.02-.006.0469-.0349a.1973.1973,0,0,0,.0554-.0987c.2807-2.2869.5593-4.574.8432-6.9032l7.0479.8589c-.0136-.0164.0184.012.0367.0474a.2044.2044,0,0,1,.0266.11c-.2768,2.2869-.5558,4.5736-.8443,6.9411l7.1308.8692q3.5655.4344,7.1309.8691l.8691-7.1309.8691-7.1309-7.001-.8532a.5851.5851,0,0,1-.0771-.0937.2014.2014,0,0,1-.0282-.11c.2769-2.2874.5558-4.5745.8445-6.9433l7.1309.8691c.5776-4.74,1.1553-9.4792,1.7382-14.2617-2.3666-.2884-4.6539-.5671-6.9411-.8477a.2038.2038,0,0,1-.1005-.0526c-.03-.0263-.0495-.0641-.0358-.0455.2887-2.3688.5717-4.6914.8591-7.0489,4.7069.5737,9.37,1.1422,14.0342,1.7086a.1956.1956,0,0,0,.1089-.0306.5758.5758,0,0,0,.0914-.0785l1.7219-14.1283-7.1309-.8691c.2947-2.4176.582-4.7742.8692-7.1308l-7.1309-.8692-.8536,7.0038a.5849.5849,0,0,1-.0956.0761.2058.2058,0,0,1-.11.0262c-7.04-.8563-14.079-1.7143-21.2021-2.5825-.2928,2.4023-.581,4.7666-.8692,7.1309q-.4344,3.5653-.8691,7.1308c-.2872,2.3566-.5744,4.7133-.869,7.1309,2.4176.2947,4.7742.5819,7.1494.8521q.8863-7.0706,1.7485-14.2117c2.3526.2866,4.6731.57,7.046.8587-.5742,4.7113-1.15,9.4339-1.73,14.1947-2.3554-.287-4.7169-.5749-7.0645-.8417-.598,4.7709-1.1774,9.5248-1.7413,14.2985,2.34.303,4.7.5906,7.0848.8813-.2868,2.3535-.5694,4.6721-.8584,7.0432l-7.0693-.8616c.2874-2.3591.575-4.7188.8429-7.0629q-7.1541-.8988-14.2772-1.758c-.2875,2.3595-.5751,4.7191-.8691,7.1309L186.99,162.955l-2.6072,21.3925q-.4347,3.5655-.8692,7.1309l7.1309.8691c-.2946,2.4176-.5819,4.7742-.8691,7.1308l14.2617,1.7383C204.3311,198.8047,204.6186,196.4452,204.9062,194.0857Z" transform="translate(-2 -2)" style="fill:#fc9100"/><path d="M205.5972,129.0389l7.1308.8691c.2882-2.3643.5764-4.7286.8692-7.1309,7.1231.8682,14.1625,1.7262,21.2021,2.5825a.2058.2058,0,0,0,.11-.0262.5849.5849,0,0,0,.0956-.0761l.8536-7.0038-7.162-.8728c.2953-2.4224.5817-4.7721.8714-7.15l-14.2306-1.7344c.2914-2.3905.5791-4.7512.8668-7.112l-14.1282-1.7219a.5713.5713,0,0,1-.0786-.0914.1965.1965,0,0,1-.0306-.109c.2768-2.2881.5559-4.5759.8448-6.9468l-7.1308-.8691q-.4265,3.4981-.8527,6.9961a.5741.5741,0,0,1-.09.0791.195.195,0,0,1-.1086.0316q-17.736-2.1588-35.4717-4.3214l-.8691,7.1308-.8691,7.1309-.8691,7.1308,7.1309.8692.8532-7.001c1.063-.0637,10.0961.9766,14.23,1.6406-.2826,2.3193-.5657,4.6413-.8429,6.9162a1.1789,1.1789,0,0,0,.11.15.2011.2011,0,0,0,.1.0536c2.2868.2807,4.574.5592,6.9428.8479-.2929,2.4037-.581,4.7673-.869,7.1309l7.1308.8691c-.2947,2.4176-.5819,4.7742-.8691,7.1308l14.2617,1.7382C205.0153,133.8131,205.3026,131.4565,205.5972,129.0389Z" transform="translate(-2 -2)" style="fill:#fa7700"/><path d="M120.0269,118.61l-14.2616-1.7382c.2939-2.4118.5814-4.7713.869-7.1308l-7.1308-.8691c.2887-2.3689.5676-4.6559.8445-6.9433a.2014.2014,0,0,0-.0282-.11c-.0186-.035-.0508-.0627-.0353-.0445l-7.01-.8544c-.6641,4.1339-1.7043,13.1665-1.638,14.2739l6.97.8495c-.2884,2.3659-.5714,4.6882-.8639,7.0874l-14.2386-1.7354q-.8691,7.1308-1.7382,14.2617l7.1308.8691c-.2946,2.4176-.5818,4.7742-.869,7.1309q-.4347,3.5655-.8692,7.1308l7.1309.8691,7.1308.8691c.2873-2.3566.5745-4.7132.8692-7.1308,2.4175.2946,4.7741.5819,7.1308.869.2872-2.3566.5744-4.7132.8691-7.1308l7.1309.8691c.5765-4.7306,1.1531-9.4613,1.7381-14.2617l7.1309.8691.8691-7.1309Z" transform="translate(-2 -2)" style="fill:#fa7700"/><path d="M190.9688,308.2043l-14.25-1.7366c-.29,2.3781-.5765,4.7294-.8625,7.0762-5.86-.5638-13.2379-1.5219-14.232-1.8455q.4264-3.4977.8526-6.9955l-7.0022-.8534a.5754.5754,0,0,0-.0971.0734.2026.2026,0,0,0-.0529.1c-.2806,2.2871-.5592,4.5745-.8428,6.9016l-21.3058-2.5968c.0125.0147-.02-.013-.0386-.0478a.2005.2005,0,0,1-.0285-.11c.5665-4.6632,1.1349-9.3263,1.7084-14.032l-7.0488-.8591c.0171-.0129-.0207.0072-.0469.0374a.2064.2064,0,0,0-.0516.101c-.57,4.6625-1.1382,9.3252-1.7165,14.07l-7.1309-.869q-.4323,3.5473-.8641,7.09c4.8323.7817,84.4309,10.4005,85.5805,10.3451l.8538-7.0064-14.29-1.7416C190.398,312.8879,190.6846,310.5366,190.9688,308.2043Z" transform="translate(-2 -2)" style="fill:#fa7700"/><path d="M173.1926,38.3371a.2152.2152,0,0,1,.0234.1113q-.4095,3.3811-.8205,6.7622c-.0041.034.0233.0719.0494.1464l7.0407.8581q.4258-3.4946.8611-7.0656l7.1057.8659c-.283,2.3221-.5662,4.6454-.8429,6.9156a1.2354,1.2354,0,0,0,.1106.1571.1965.1965,0,0,0,.0986.0557c2.2887.281,4.5778.56,6.91.844.2884-2.3668.5718-4.691.862-7.073l21.4069,2.609c-.2832,2.3234-.5665,4.6476-.8559,7.0223l7.1454.8709c.2859-2.3453.5692-4.67.863-7.08,2.4076.2933,4.7728.5816,7.1381.87q.4323-3.5473.8641-7.09c-4.7691-.7725-70.1755-8.6626-71.3188-8.6069q-.4269,3.5031-.8539,7.0062l14.14,1.7234A.587.587,0,0,1,173.1926,38.3371Z" transform="translate(-2 -2)" style="fill:#fa7700"/><path d="M85.7436,280.793a.2019.2019,0,0,0,.0536-.1c.2807-2.2869.5592-4.574.8479-6.9428l7.1309.869c.8676-7.1181,1.7351-14.2363,2.6079-21.3972l-7.1423-.87c.292-2.3953.5789-4.7494.8648-7.0956l-7.1441-.8707c-.29,2.3831-.5774,4.7372-.8692,7.1316l-7.0373-.8577c-.046.0729-.0805.1035-.0847.1378q-.85,6.945-1.6965,13.89a.2155.2155,0,0,1-.05.1022.5906.5906,0,0,1-.0919.0772l-7.0112-.8545q-.4344,3.5655-.869,7.1309l7.1308.869c-.2947,2.4176-.5818,4.7743-.8691,7.1309l7.1309.8691,7.0009.8533A.5873.5873,0,0,0,85.7436,280.793Z" transform="translate(-2 -2)" style="fill:#fc9100"/><path d="M294.6749,110.9484c-.2952,2.4224-.5816,4.7721-.8722,7.1563l7.1.8653c-.5813,4.77-1.1582,9.5031-1.7351,14.2363q7.1308.8689,14.2617,1.7382c.5779-4.7415,1.1558-9.483,1.7389-14.267l-7.1427-.8706c.2919-2.3952.5788-4.7493.8707-7.144l-7.1436-.8706c.5816-4.7723,1.1581-9.5023,1.74-14.2741l-7.0365-.8575c-.0276-.0817-.0542-.12-.05-.1539q.4086-3.3809.82-6.7613a.2158.2158,0,0,0-.024-.1111.5918.5918,0,0,0-.07-.0969L290.12,88.683q-1.3035,10.6962-2.6072,21.3925Z" transform="translate(-2 -2)" style="fill:#fa7700"/><path d="M220.4468,304.4481a.198.198,0,0,1-.0291-.1094c.2769-2.2882.5559-4.5761.8446-6.9447l14.2617,1.7382q.8691-7.1309,1.7381-14.2617l-7.1308-.8691c-.289,2.3709-.5676,4.6588-.8485,6.9464a.1958.1958,0,0,1-.0558.0984.5831.5831,0,0,1-.0982.07l-14.1283-1.722c-.8673,7.116-1.7346,14.232-2.6073,21.3926-2.3651-.2882-4.6527-.5672-6.94-.8442a.2064.2064,0,0,0-.11.0261.5772.5772,0,0,0-.0956.0762l-.8537,7.0037,14.2852,1.741c.2942-2.4141.5807-4.7646.8709-7.1453l14.2382,1.7354c.2917-2.3933.58-4.7549.8674-7.1164l-14.13-1.7222A.5736.5736,0,0,1,220.4468,304.4481Z" transform="translate(-2 -2)" style="fill:#fa7700"/><path d="M324.1605,165.2824a.5723.5723,0,0,0-.0779-.0924l-6.999-.853q-1.7355,14.2388-3.4764,28.5234c-2.3642-.2881-4.6518-.5671-6.94-.8442a.2224.2224,0,0,0-.1107.0254.6221.6221,0,0,0-.0943.063q-.4291,3.5218-.8553,7.0175l7.1309.8692c-.5851,4.8-1.1616,9.531-1.7382,14.2617l7.1309.8691q3.03-24.8652,6.0593-49.73A.1991.1991,0,0,0,324.1605,165.2824Z" transform="translate(-2 -2)" style="fill:#fa7700"/><path d="M204.0371,201.2166l-14.2617-1.7383-2.6073,21.3926,7.1309.8691c.2872-2.3566.5744-4.7133.869-7.1309l7.1309.8691c.2872-2.3566.5745-4.7132.8691-7.1308l7.1308.8691.8692-7.1309c2.3688.2887,4.6559.5677,6.9433.8445a.201.201,0,0,0,.11-.0281.5762.5762,0,0,0,.0937-.0772l.8533-7.0009q-7.1309-.8692-14.2617-1.7382C204.6186,196.4452,204.3311,198.8047,204.0371,201.2166Z" transform="translate(-2 -2)" style="fill:#fa7700"/><path d="M113.43,291.4885l-7.1309-.8692c.5851-4.8,1.1616-9.531,1.7382-14.2617q-7.1309-.8689-14.2617-1.7382L91.1687,296.012l7.1309.8691,14.2617,1.7382C112.8552,296.2075,113.1428,293.848,113.43,291.4885Z" transform="translate(-2 -2)" style="fill:#fc9100"/><path d="M54.2891,182.9655l7.1309.8691,1.7382-14.2617-7.001-.8532a.58.58,0,0,0-.0974.0724.2.2,0,0,0-.0536.1c-.2807,2.2869-.5592,4.574-.8479,6.9429l-7.1309-.8691-.8691,7.1308-.8691,7.1309L43.6819,210.62l7.1308.8692C51.9684,202.0067,53.1241,192.5245,54.2891,182.9655Z" transform="translate(-2 -2)" style="fill:#fc9100"/><path d="M54.2891,182.9655c-1.165,9.559-2.3207,19.0412-3.4764,28.5235l7.1309.869c.2876-2.3595.5752-4.719.8691-7.1308l14.2617,1.7382.8691-7.1309-7.1308-.8691-7.001-.8532a.58.58,0,0,1-.0771-.0937.2005.2005,0,0,1-.0282-.11c.2769-2.2874.5558-4.5745.8445-6.9433l7.1309.8691q.4344-3.5655.869-7.1309l-7.1308-.8691Z" transform="translate(-2 -2)" style="fill:#fa7700"/><path d="M202.1208,157.5623l14.2617,1.7382,1.7382-14.2617L210.99,144.17c.2946-2.4176.5818-4.7743.869-7.1309l-7.1308-.8691c-.2872,2.3567-.5744,4.7133-.8691,7.1309l-7.1309-.8691q-.4344,3.5655-.869,7.1309c2.3566.2871,4.7132.5744,7.1308.8691C202.6953,152.8491,202.408,155.2057,202.1208,157.5623Z" transform="translate(-2 -2)" style="fill:#fa7700"/><path d="M232.5605,204.6929l.8691-7.1308L235.1678,183.3q-3.5655-.4347-7.1309-.8691-.4344,3.5653-.8691,7.1308t-.869,7.1308q-1.3037,10.6963-2.6073,21.3926l7.1308.8691C231.4074,214.1542,231.9839,209.4236,232.5605,204.6929Z" transform="translate(-2 -2)" style="fill:#ef0d00"/><path d="M259.5563,280.4351a.2029.2029,0,0,0-.0537.1c-.2806,2.2869-.5592,4.574-.8479,6.9429l-7.1308-.8691-.8533,7.0009a.5858.5858,0,0,1-.0936.0773.2016.2016,0,0,1-.11.0281c-2.2873-.2769-4.5744-.5558-6.9433-.8446-.2929,2.4037-.581,4.7673-.8691,7.1309l14.2851,1.7411c.2943-2.4142.5808-4.7647.8716-7.1508l7.1074.8662c.5817-4.7724,1.1587-9.5071,1.7358-14.2418l-7.001-.8532A.586.586,0,0,0,259.5563,280.4351Z" transform="translate(-2 -2)" style="fill:#fa7700"/><path d="M178.1309,118.4528a.2011.2011,0,0,1-.1-.0536,1.1789,1.1789,0,0,1-.11-.15c.2772-2.2749.56-4.5969.8429-6.9162-4.1334-.664-13.1665-1.7043-14.23-1.6406l-.8532,7.001,7.1308.8691c-.5851,4.8-1.1616,9.531-1.7381,14.2617l7.1308.8691c.2872-2.3567.5744-4.7133.8691-7.1309l7.1309.8691c.288-2.3636.5761-4.7272.869-7.1309C182.7049,119.012,180.4177,118.7335,178.1309,118.4528Z" transform="translate(-2 -2)" style="fill:#fc9100"/><path d="M68.7232,242.6668c-3.4025-.5745-13.2275-1.7136-14.2714-1.6589q-.4268,3.5022-.8537,7.0044-.4344,3.5653-.869,7.1309l7.1308.8691c-.2947,2.4175-.5819,4.7741-.8691,7.1308l7.1308.8691Q67.4227,253.3376,68.7232,242.6668Z" transform="translate(-2 -2)" style="fill:#fc9100"/><path d="M80.76,84.8768c-.7027,4.302-3.45,27.4342-3.3919,28.5338l7.0045.8537q1.7382-14.2617,3.4764-28.5235Z" transform="translate(-2 -2)" style="fill:#fa7700"/><path d="M113.43,291.4885c-.2876,2.36-.5752,4.719-.8691,7.1308L98.3,296.8811c-.2878,2.361-.5755,4.7219-.8691,7.1309l21.3925,2.6073c.5766-4.7307,1.1531-9.4613,1.7382-14.2618Z" transform="translate(-2 -2)" style="fill:#fa7700"/><path d="M86.6451,273.75c-.2887,2.3688-.5672,4.6559-.8479,6.9428a.2019.2019,0,0,1-.0536.1.5873.5873,0,0,1-.0975.0724l-7.0009-.8533-.8723,7.157,7.1481.8712c-.2922,2.3973-.5748,4.716-.8659,7.1047l7.1136.867,2.6073-21.3926Z" transform="translate(-2 -2)" style="fill:#fa7700"/><path d="M302.1309,227.6456,295,226.7765c-.288,2.3636-.5761,4.7272-.8691,7.1308,2.3689.2887,4.656.5673,6.9429.8479a.2021.2021,0,0,1,.1.0537.587.587,0,0,1,.0725.0974l-.8533,7.001,7.1309.8691c.875-7.18,1.7411-14.2864,2.6072-21.3926L303,220.5147C302.7128,222.8713,302.4255,225.228,302.1309,227.6456Z" transform="translate(-2 -2)" style="fill:#fa7700"/><path d="M250.8115,54.9449c.2878-2.3609.5755-4.7219.8691-7.1308l-21.3925-2.6073c-.2878,2.361-.5755,4.722-.8692,7.1308Z" transform="translate(-2 -2)" style="fill:#fa7700"/><path d="M39.1583,188.3582q-1.2929,10.608-2.5837,21.2161a.1861.1861,0,0,0,.0359.1072.5688.5688,0,0,0,.0812.0864l6.99.8519,2.6073-21.3925Z" transform="translate(-2 -2)" style="fill:#fa7700"/><path d="M43.6819,210.62q-1.2929,10.608-2.5838,21.2162a.1872.1872,0,0,0,.0359.1071.56.56,0,0,0,.0813.0864l6.99.852,2.6072-21.3925Z" transform="translate(-2 -2)" style="fill:#fa7700"/><path d="M205.7753,186.9548c-.2936,2.409-.5813,4.77-.8691,7.1309q7.1308.8689,14.2617,1.7382l7.1309.869q.4344-3.5654.869-7.1308Z" transform="translate(-2 -2)" style="fill:#fc9100"/><path d="M161.0739,138.086l2.6073-21.3925-7.1309-.8692-1.7382,14.2618q-.4345,3.5654-.869,7.1308Q157.5083,137.6516,161.0739,138.086Z" transform="translate(-2 -2)" style="fill:#fc9100"/><path d="M56.0062,168.8918a.2.2,0,0,1,.0536-.1.58.58,0,0,1,.0974-.0724l7.001.8532.8691-7.1308-7.1309-.8692-7.1308-.869c-.5851,4.8-1.1617,9.531-1.7382,14.2617l7.1309.8691C55.447,173.4658,55.7255,171.1787,56.0062,168.8918Z" transform="translate(-2 -2)" style="fill:#fa7700"/><path d="M150.1105,49.9084l7.1308.8692c.5851-4.8,1.1617-9.5311,1.7382-14.2617l-14.2617-1.7383c-.294,2.4119-.5815,4.7714-.8691,7.1309l7.1309.8691C150.6849,45.1952,150.3977,47.5518,150.1105,49.9084Z" transform="translate(-2 -2)" style="fill:#fa7700"/><path d="M179.9016,162.0911c-.4316,2.633-1.3666,10.2074-1.97,15.6107l-.0125.1123c-.3328,2.9888-.5614,5.2932-.5406,5.68l7.0038.8536L186.99,162.955Z" transform="translate(-2 -2)" style="fill:#ef0d00"/><path d="M117.42,140.0023l7.1308.8691c.5851-4.8,1.1617-9.5311,1.7382-14.2617l-7.1309-.8691C118.5728,130.541,117.9962,135.2717,117.42,140.0023Z" transform="translate(-2 -2)" style="fill:#ef0d00"/><path d="M204.7281,136.17l-14.2617-1.7382c-.2872,2.3567-.5744,4.7133-.8691,7.1309l7.1308.8691,7.1309.8691C204.1537,140.883,204.4409,138.5264,204.7281,136.17Z" transform="translate(-2 -2)" style="fill:#ef0d00"/><path d="M317.9527,157.2061l1.7382-14.2617-7.1309-.8691c-.5765,4.7307-1.1531,9.4613-1.7382,14.2617Z" transform="translate(-2 -2)" style="fill:#fa7700"/><path d="M153.9431,137.2169l-7.1309-.8691-.8691,7.1309-.8691,7.1309,7.1308.869.8691-7.1308Q153.5084,140.7823,153.9431,137.2169Z" transform="translate(-2 -2)" style="fill:#fc9100"/><path d="M181.9536,263.656l-14.2618-1.7382c-.2939,2.4119-.5815,4.7713-.8691,7.1309l14.2617,1.7382C181.3784,268.3751,181.666,266.0156,181.9536,263.656Z" transform="translate(-2 -2)" style="fill:#ef0d00"/><path d="M131.1685,264.7032c.2876-2.3595.5751-4.719.869-7.1308l-14.2617-1.7382c-.2875,2.3595-.5751,4.719-.8691,7.1308Z" transform="translate(-2 -2)" style="fill:#ef0d00"/><path d="M291.5236,255.3l7.1309.8691c.5851-4.8,1.1616-9.5311,1.7382-14.2617l-7.1309-.8691C292.6768,245.8386,292.1,250.5693,291.5236,255.3Z" transform="translate(-2 -2)" style="fill:#fa7700"/><path d="M144.0268,99.8245l-.8691,7.1308,14.2617,1.7382.8691-7.1309Z" transform="translate(-2 -2)" style="fill:#ef0d00"/><path d="M127.1578,119.4788l-.8691,7.1309,7.1309.8691c.585-4.8005,1.1616-9.531,1.7382-14.2617l-7.1309-.8691Z" transform="translate(-2 -2)" style="fill:#ef1000"/><path d="M68.5508,184.7037l1.7383-14.2617-7.1309-.8691L61.42,183.8346Z" transform="translate(-2 -2)" style="fill:#ef1000"/><path d="M264.2042,63.814c.2875-2.3595.5751-4.719.869-7.1308l-14.2617-1.7383q-.4344,3.5655-.8691,7.1309Z" transform="translate(-2 -2)" style="fill:#fa7700"/><path d="M137.9431,149.74q-.4321,3.5462-.8638,7.0877c3.7587.6191,13.219,1.7123,14.2721,1.6532l.8534-7.0027-7.1308-.869Z" transform="translate(-2 -2)" style="fill:#ef0d00"/><path d="M202.1208,157.5623l-7.1308-.8691-7.1309-.8691-.8691,7.1309,14.2617,1.7382C201.5457,162.2814,201.8333,159.9218,202.1208,157.5623Z" transform="translate(-2 -2)" style="fill:#fa7700"/><path d="M87.158,150.7876c-.2872,2.3567-.5744,4.7133-.8691,7.1309l7.1309.8691.8691-7.1309Z" transform="translate(-2 -2)" style="fill:#ef0d00"/><path d="M93.42,158.7876l7.1309.8691c.2946-2.4176.5818-4.7743.869-7.1309l-7.1308-.8691Z" transform="translate(-2 -2)" style="fill:#f93500"/><path d="M270.4659,71.814l.8691-7.1309-7.1308-.8691c-.2873,2.3567-.5745,4.7133-.8692,7.1309Z" transform="translate(-2 -2)" style="fill:#fa7700"/><path d="M64.8964,155.3112c-2.3688-.2887-4.6559-.5677-6.9433-.8445a.2011.2011,0,0,0-.11.0281.5814.5814,0,0,0-.0937.0772l-.8533,7.0009,7.1309.8692C64.3154,160.0784,64.6035,157.7148,64.8964,155.3112Z" transform="translate(-2 -2)" style="fill:#fc9100"/><path d="M101.42,152.5258l7.1309.8691c.2947-2.4175.5819-4.7742.8691-7.1309-2.3567-.2871-4.7133-.5744-7.1308-.869C101.9942,147.8126,101.707,150.1692,101.42,152.5258Z" transform="translate(-2 -2)" style="fill:#ef1000"/><path d="M195.8591,149.5624l-7.1309-.8692c-.2947,2.4176-.5819,4.7743-.8691,7.1309l7.1309.8691Q195.4245,153.1277,195.8591,149.5624Z" transform="translate(-2 -2)" style="fill:#ef0d00"/><path d="M152.2048,151.4786l7.1309.8691c.2946-2.4175.5818-4.7742.8691-7.1308l-7.1309-.8691Z" transform="translate(-2 -2)" style="fill:#ef0d00"/><path d="M121.587,46.4321l-7.1308-.8691c-.2946,2.4176-.5819,4.7742-.8691,7.1308q3.5655.4347,7.1309.8691Q121.1524,49.9976,121.587,46.4321Z" transform="translate(-2 -2)" style="fill:#fa7700"/><circle cx="186.6445" cy="195.4784" r="5.0796" transform="translate(-31.9784 355.1028) rotate(-83.0513)" style="fill:#ef0d00"/><path d="M135.1578,113.2171l7.1308.8691c.2947-2.4176.5819-4.7742.8691-7.1309l-7.1308-.8691C135.7322,108.5038,135.4449,110.86,135.1578,113.2171Z" transform="translate(-2 -2)" style="fill:#ef0d00"/><path d="M136.7178,41.0394,129.587,40.17c-.2946,2.4176-.5819,4.7743-.8691,7.1309l7.1309.8691C136.1434,45.7527,136.4306,43.3961,136.7178,41.0394Z" transform="translate(-2 -2)" style="fill:#fa7700"/><path d="M73.9435,199.8345c.2873-2.3566.5744-4.7133.8691-7.1308l-7.1308-.8691-.8691,7.1308Z" transform="translate(-2 -2)" style="fill:#ef0d00"/><circle cx="206.2989" cy="212.3474" r="5.0796" transform="translate(-89.401 173.0509) rotate(-38.5906)" style="fill:#ef0d00"/><path d="M145.9431,143.4787l-7.1309-.8691-.8691,7.1308,7.1309.8692Z" transform="translate(-2 -2)" style="fill:#fa7700"/><path d="M194.299,221.74l7.1308.8691c.2947-2.4176.5819-4.7742.8691-7.1309l-7.1309-.8691C194.8734,217.0267,194.5862,219.3834,194.299,221.74Z" transform="translate(-2 -2)" style="fill:#ef0d00"/><path d="M131.6814,141.7405c-.2888,2.3688-.5677,4.6559-.8445,6.9433a.2011.2011,0,0,0,.0281.11.586.586,0,0,0,.0771.0937l7.001.8532.8691-7.1308Z" transform="translate(-2 -2)" style="fill:#ef0d00"/><path d="M79.3362,214.9653c.2872-2.3566.5744-4.7132.8691-7.1308l-7.1309-.8691q-.4346,3.5654-.8691,7.1309Z" transform="translate(-2 -2)" style="fill:#ef0d00"/><path d="M186.299,228.0018c2.3688.2887,4.656.5676,6.9433.8445a.2023.2023,0,0,0,.11-.0282.5807.5807,0,0,0,.0937-.0771l.8533-7.001-7.1309-.8691C186.88,223.2345,186.592,225.5981,186.299,228.0018Z" transform="translate(-2 -2)" style="fill:#ef0d00"/><path d="M109.42,146.264l7.1308.8692c.2947-2.4176.5819-4.7743.8692-7.1309l-7.1309-.8691C109.9941,141.5508,109.7069,143.9074,109.42,146.264Z" transform="translate(-2 -2)" style="fill:#ef0d00"/><path d="M85.598,222.9653c.2872-2.3567.5744-4.7133.869-7.1309l-7.1308-.8691-.8691,7.1309Z" transform="translate(-2 -2)" style="fill:#ef0d00"/><path d="M221.9533,232.3472l-7.1309-.8691c-.2946,2.4176-.5819,4.7743-.8691,7.1309l7.1309.8691C221.3788,237.0605,221.6661,234.7039,221.9533,232.3472Z" transform="translate(-2 -2)" style="fill:#ef0d00"/><path d="M90.9906,238.0961l.8691-7.1309-7.1309-.8691c-.2871,2.3567-.5744,4.7133-.8691,7.1309Z" transform="translate(-2 -2)" style="fill:#ef0d00"/><circle cx="209.0843" cy="248.8707" r="5.0796" transform="translate(-102.8178 148.8218) rotate(-32.4086)" style="fill:#ef1000"/><path d="M104.3832,246.9651c.2873-2.3566.5744-4.7133.8691-7.1308l-7.1308-.8692c-.2873,2.3567-.5745,4.7134-.8691,7.1309Z" transform="translate(-2 -2)" style="fill:#ef0d00"/><path d="M205.0843,252.0016l-7.1309-.8691c-.2946,2.4176-.5818,4.7742-.869,7.1309l7.1308.869C204.51,256.7149,204.7971,254.3582,205.0843,252.0016Z" transform="translate(-2 -2)" style="fill:#ef0d00"/><path d="M282.6546,268.6925l7.1309.8691c.2946-2.4176.5818-4.7742.869-7.1309q-3.5653-.4344-7.1308-.8691Z" transform="translate(-2 -2)" style="fill:#fa7700"/><path d="M97.5872,65.2173c-2.3567-.2871-4.7133-.5744-7.1308-.869-.2947,2.4176-.5819,4.7742-.8692,7.1308l7.1309.8691C97.0128,69.9307,97.3,67.574,97.5872,65.2173Z" transform="translate(-2 -2)" style="fill:#fa7700"/><path d="M290.12,88.683c.2873-2.3567.5745-4.7133.8692-7.1309l-7.1309-.8691c-.2872,2.3567-.5744,4.7133-.8691,7.1308Z" transform="translate(-2 -2)" style="fill:#fa7700"/><circle cx="107.5141" cy="250.9651" r="5.0796" transform="translate(-135.0612 119.867) rotate(-38.5906)" style="fill:#ef0d00"/><path d="M274.6547,274.9543l7.1308.8691c.2946-2.4176.5819-4.7743.8691-7.1309l-7.1309-.8691Q275.0891,271.3889,274.6547,274.9543Z" transform="translate(-2 -2)" style="fill:#fa7700"/><path d="M160.2048,145.2169l7.1308.8691c.2947-2.4176.5819-4.7742.8691-7.1309l-7.1308-.8691Z" transform="translate(-2 -2)" style="fill:#ef0d00"/><path d="M266.6547,281.216l7.1308.8691c.2947-2.4176.5819-4.7742.8692-7.1308l-7.1309-.8692Z" transform="translate(-2 -2)" style="fill:#fa7700"/><path d="M52.7291,255.1432c-.2873,2.3566-.5745,4.7132-.8692,7.1308l7.1309.8691c.2872-2.3567.5744-4.7133.8691-7.1308Z" transform="translate(-2 -2)" style="fill:#fb9a44"/><path d="M58.9908,263.1431c-.2872,2.3567-.5744,4.7133-.8691,7.1309l7.1309.8691q.4344-3.5655.869-7.1309Z" transform="translate(-2 -2)" style="fill:#fa7700"/><path d="M105.5872,58.9556l-7.1309-.8691c-.2947,2.4176-.5819,4.7742-.8691,7.1308l7.1309.8692C105.0127,63.6689,105.3,61.3123,105.5872,58.9556Z" transform="translate(-2 -2)" style="fill:#fa7700"/><circle cx="68.3835" cy="275.143" r="5.0796" transform="translate(-215.0117 307.7372) rotate(-83.0513)" style="fill:#fba04f"/><path d="M283.8585,80.683c.2873-2.3566.5745-4.7133.8691-7.1309l-7.1309-.8691q-.4344,3.5655-.869,7.1309Z" transform="translate(-2 -2)" style="fill:#fa7700"/><path d="M168.2047,138.9551l7.1309.8691c.2946-2.4176.5819-4.7742.8691-7.1308l-7.1308-.8691Q168.6392,135.39,168.2047,138.9551Z" transform="translate(-2 -2)" style="fill:#ef0d00"/><path d="M154.8121,130.0861l-7.1308-.8691c-.2947,2.4175-.5819,4.7742-.8691,7.1308l7.1309.8691Q154.3775,133.6515,154.8121,130.0861Z" transform="translate(-2 -2)" style="fill:#ef0d00"/><path d="M234.6549,306.2631l7.1309.869.869-7.1308-7.1308-.8691Z" transform="translate(-2 -2)" style="fill:#fa7700"/><path d="M113.5871,52.6938l-7.1309-.869-.869,7.1308,7.1308.8691C113.0126,57.4071,113.3,55.0505,113.5871,52.6938Z" transform="translate(-2 -2)" style="fill:#fa7700"/><path d="M277.5967,72.683c.2873-2.3566.5745-4.7132.8691-7.1308l-7.1308-.8691-.8691,7.1309Z" transform="translate(-2 -2)" style="fill:#fb9a44"/><path d="M127.67,293.4178a.2064.2064,0,0,1,.0516-.101c.0262-.03.064-.05.0469-.0374l7.0488.8591c-.5735,4.7057-1.1419,9.3688-1.7084,14.032a.2005.2005,0,0,0,.0285.11c.0188.0348.0511.0625.0386.0478l21.3058,2.5968c.2836-2.3271.5622-4.6145.8428-6.9016a.2026.2026,0,0,1,.0529-.1.5754.5754,0,0,1,.0971-.0734l7.0022.8534q.4347-3.5653.8691-7.1308l-7.1308-.8691c.2946-2.4176.5819-4.7742.8691-7.1309l-7.1309-.869c.2887-2.3689.5677-4.656.8445-6.9433a.2011.2011,0,0,0-.0281-.11c-.0186-.035-.0509-.0628-.0354-.0445l-7.053-.86c-.2883,2.3656-.5714,4.6883-.8582,7.0414l-7.1359-.87c.2887-2.3683.5717-4.6909.8635-7.0849l-21.3825-2.6061L113.43,291.4885l7.1308.869c-.5851,4.8005-1.1616,9.5311-1.7382,14.2618l7.1309.869C126.5322,302.743,127.1,298.08,127.67,293.4178Z" transform="translate(-2 -2)" style="fill:#fc9100"/><path d="M78.4671,222.0962l-7.1309-.8691c.2947-2.4176.5819-4.7742.8691-7.1308q.4347-3.5657.8691-7.1309l-14.2617-1.7382c-.2939,2.4118-.5815,4.7713-.8536,7.1506,2.34.303,4.7.5906,7.0848.8814-.2868,2.3535-.5694,4.6721-.8584,7.0432l-7.0694-.8616c.2875-2.3591.5751-4.7188.843-7.063-2.3924-.3094-4.7694-.5992-7.1464-.8888l-2.6072,21.3925,28.5234,3.4764C77.3126,231.5689,77.89,226.8325,78.4671,222.0962Z" transform="translate(-2 -2)" style="fill:#fc9100"/><path d="M266.4766,223.3q.4323-3.5475.8661-7.1065l-14.274-1.74c-.29,2.3767-.5766,4.7308-.8684,7.1252l-14.194-1.73-1.7313,14.2062,14.1389,1.7233c.0429-.0667.078-.0971.0822-.1312q.4153-3.38.8276-6.7607a.2167.2167,0,0,1,.05-.1022.59.59,0,0,1,.0923-.0772l7.0108.8544c.2873-2.3566.5745-4.7132.8692-7.1308Z" transform="translate(-2 -2)" style="fill:#fc9100"/><path d="M253.8942,207.293c.2954-2.4239.582-4.7754.8734-7.1668l-7.11-.8666q.4374-3.5888.86-7.0539l-7.0924-.8645c-.2837,2.3279-.5623,4.6151-.8429,6.902a.2021.2021,0,0,1-.0537.1.5777.5777,0,0,1-.0975.0724l-7.0009-.8532-.8691,7.1308Z" transform="translate(-2 -2)" style="fill:#fc9100"/><path d="M244.0369,169.9077c-.2947,2.4176-.5819,4.7742-.8692,7.1309l7.0885.8639c.6421-3.9178,1.7151-13.226,1.6493-14.2726l-14.13-1.7221-.8691,7.1308Z" transform="translate(-2 -2)" style="fill:#fc9100"/><path d="M157.9382,282.5684q-.4269,3.5019-.8536,7.0037l7.1309.8692c-.2947,2.4175-.582,4.7742-.8692,7.1308l7.1309.8691,1.7326-14.2161C168.6809,283.6351,158.9825,282.5121,157.9382,282.5684Z" transform="translate(-2 -2)" style="fill:#fc9100"/><path d="M262.87,193.952c-.58,4.7607-1.1558,9.4834-1.73,14.1947l7.046.8587q.8707-7.145,1.73-14.1947Z" transform="translate(-2 -2)" style="fill:#fc9100"/><path d="M235.1678,183.3l7.1308.869c.2947-2.4176.582-4.7742.8691-7.1308l-7.1308-.8691Z" transform="translate(-2 -2)" style="fill:#ef1000"/><path d="M295,226.7765l7.1309.8691c.2946-2.4176.5819-4.7743.869-7.1309l-7.1308-.8691Z" transform="translate(-2 -2)" style="fill:#fc9100"/><path d="M266.4766,223.3l-.8691,7.1309,7.1308.869c.2873-2.3566.5745-4.7132.8692-7.1308Z" transform="translate(-2 -2)" style="fill:#fc9100"/><path d="M257.6075,236.6927c2.3689.2887,4.656.5677,6.9433.8445a.2016.2016,0,0,0,.11-.0281.57.57,0,0,0,.0936-.0772q.4266-3.5.8533-7.0009l-7.1309-.8692C258.1886,231.9255,257.9005,234.2891,257.6075,236.6927Z" transform="translate(-2 -2)" style="fill:#fc9100"/><path d="M109.0944,269.2514a.2011.2011,0,0,0-.11.0281.5821.5821,0,0,0-.0938.0772l-.8532,7.0009,7.1309.8691c.288-2.3636.5761-4.7272.8691-7.1308C113.6688,269.8072,111.3817,269.5283,109.0944,269.2514Z" transform="translate(-2 -2)" style="fill:#fc9100"/><path d="M294.8006,169.0493a.2033.2033,0,0,1,.0532-.1,1.1609,1.1609,0,0,1,.1475-.1094l14.0874,1.717c.284-2.33.563-4.6177.84-6.9059a.1949.1949,0,0,0-.0312-.1087c-.0195-.0341-.0521-.0608-.0361-.0429l-21.2866-2.5944-2.5971,21.3087,7.1114.8667C293.6623,178.3754,294.2305,173.7122,294.8006,169.0493Z" transform="translate(-2 -2)" style="fill:#fa7700"/><path d="M224.1832,95.3108a.2.2,0,0,1,.0537-.1.5829.5829,0,0,1,.0974-.0725l7.001.8533c.288-2.3636.5761-4.7272.869-7.1309-2.3688-.2887-4.656-.5672-6.9428-.8479a.2.2,0,0,1-.1-.0536.5851.5851,0,0,1-.0724-.0974l.8533-7.001-7.1309-.8691c-.8751,7.18-1.7412,14.2864-2.6073,21.3926l7.1309.8691C223.624,99.8848,223.9025,97.5977,224.1832,95.3108Z" transform="translate(-2 -2)" style="fill:#fa7700"/><path d="M254.5157,84.3774l-.8679,7.1205,7.0976.865c-.2911,2.3879-.5776,4.7387-.8629,7.08l7.0771.8626q.8707-7.1446,1.7307-14.2Z" transform="translate(-2 -2)" style="fill:#fa7700"/><path d="M295.8691,219.6456l7.1308.8691q1.3038-10.6962,2.6073-21.3926l-7.1308-.869C297.6013,205.4333,296.7352,212.54,295.8691,219.6456Z" transform="translate(-2 -2)" style="fill:#fa7700"/><path d="M230.5119,103.0751l21.3228,2.5988c.2893-2.3739.5723-4.6953.859-7.0473l-21.3229-2.5988C231.0867,98.3592,230.7987,100.7217,230.5119,103.0751Z" transform="translate(-2 -2)" style="fill:#fa7700"/><path d="M241.9213,68.5256a.2024.2024,0,0,1,.0537-.1.5769.5769,0,0,1,.0974-.0724l7.0009.8533.8691-7.1309-14.2617-1.7382c-.5843,4.7947-1.1613,9.5282-1.7382,14.2617l7.1309.8691C241.3621,73.1,241.6407,70.8124,241.9213,68.5256Z" transform="translate(-2 -2)" style="fill:#fa7700"/><path d="M264.52,121.7468l6.96.8483q.8657-7.1021,1.7318-14.2093l-7.0984-.8652c-.5742,4.7117-1.1422,9.3709-1.708,14.03a.19.19,0,0,0,.0341.1078A.5772.5772,0,0,0,264.52,121.7468Z" transform="translate(-2 -2)" style="fill:#fa7700"/><path d="M296.599,154.55l7.0749.8623c.5784-4.7462,1.15-9.44,1.7272-14.1714l-7.0749-.8623C297.7537,145.0757,297.1767,149.81,296.599,154.55Z" transform="translate(-2 -2)" style="fill:#fa7700"/><path d="M291.2971,197.3451c.29-2.3822.5767-4.7316.8623-7.0749L277.988,188.543q-.4359,3.5764-.8623,7.0749Z" transform="translate(-2 -2)" style="fill:#fa7700"/><path d="M284.0847,138.6405c-.29,2.3832-.5766,4.7307-.8616,7.0694l7.0433.8584q.4361-3.5778.8615-7.0693Z" transform="translate(-2 -2)" style="fill:#fa7700"/><path d="M291.1675,139.468q3.5653.4347,7.1308.8691l.8691-7.1308-7.1308-.8691C291.7419,134.7548,291.4547,137.1114,291.1675,139.468Z" transform="translate(-2 -2)" style="fill:#fa7700"/><path d="M270.6856,129.6818l7.0693.8616c.289-2.3711.5716-4.69.8585-7.0433l-7.0694-.8616C271.2607,124.963,270.9731,127.3227,270.6856,129.6818Z" transform="translate(-2 -2)" style="fill:#fa7700"/><path d="M242.99,119.1227c-.2872,2.3566-.5745,4.7132-.8692,7.1308l7.1309.8691c.2872-2.3566.5745-4.7133.8691-7.1308Z" transform="translate(-2 -2)" style="fill:#fa7700"/><path d="M236.9155,111.1473a.2016.2016,0,0,0-.11.0281.5851.5851,0,0,0-.0936.0772l-.8533,7.0009,7.1309.8692c.288-2.3637.5761-4.7273.8691-7.1309C241.49,111.7031,239.2028,111.4241,236.9155,111.1473Z" transform="translate(-2 -2)" style="fill:#fa7700"/><path d="M280.43,109.248c-.29,2.3832-.5765,4.7307-.8615,7.0694l7.0432.8584.8616-7.0694Z" transform="translate(-2 -2)" style="fill:#fa7700"/><path d="M274.25,159.0808c.29-2.3832.5765-4.7307.8615-7.0694l-7.0432-.8584q-.436,3.578-.8616,7.0694Z" transform="translate(-2 -2)" style="fill:#fa7700"/><path d="M268.7277,86.0757l7.1309.8691c.2946-2.4176.5818-4.7743.8691-7.1309l-7.1309-.8691C269.3021,81.3624,269.015,83.7191,268.7277,86.0757Z" transform="translate(-2 -2)" style="fill:#fa7700"/><path d="M233.9425,74.5993l-7.1309-.8691c-.2946,2.4176-.5818,4.7743-.869,7.1309l7.1308.8691C233.3681,79.3126,233.6553,76.956,233.9425,74.5993Z" transform="translate(-2 -2)" style="fill:#fa7700"/><path d="M248.2458,76.2894l7.0694.8616c.289-2.3711.5716-4.69.8584-7.0432l-7.0694-.8616C248.8209,71.5706,248.5334,73.93,248.2458,76.2894Z" transform="translate(-2 -2)" style="fill:#fa7700"/><path d="M253.2621,272.347l14.2617,1.7381c.2872-2.3566.5744-4.7132.8691-7.1308l7.1308.8691c.2873-2.3566.5745-4.7132.8691-7.1308l7.1309.869q.4323-3.5466.864-7.0888c-4.2513-.6945-20.3265-2.5838-21.4478-2.5167-.5717,4.6908-1.1444,9.39-1.7213,14.1239-7.0839-.8634-14.1244-1.7216-21.165-2.5778a.1957.1957,0,0,0-.109.0306.5772.5772,0,0,0-.0914.0786q-1.2955,10.63-2.5911,21.2591l14.2618,1.7382C252.1008,281.8752,252.6777,277.1417,253.2621,272.347Z" transform="translate(-2 -2)" style="fill:#fa7700"/><path d="M215.8253,282.311l-14.1947-1.73c-.2893,2.3729-.5721,4.6934-.8588,7.046l14.1947,1.73C215.25,287.0279,215.5382,284.6663,215.8253,282.311Z" transform="translate(-2 -2)" style="fill:#fa7700"/><path d="M162.4772,304.7029l7.1309.8692c.2947-2.4176.5818-4.7742.8691-7.1309l-7.1309-.8691Q162.9117,301.1375,162.4772,304.7029Z" transform="translate(-2 -2)" style="fill:#fa7700"/><path d="M136.8959,98.9554c.2947-2.4176.5819-4.7742.8691-7.1309l-21.3925-2.6073c-.584,4.7913-1.1611,9.5265-1.7382,14.2617l7.1308.8691.8535-7.0027a.5839.5839,0,0,1,.0949-.0765.2038.2038,0,0,1,.11-.0269c2.2876.277,4.575.556,6.9415.8443-.5829,4.7827-1.16,9.5222-1.7382,14.2618l7.1309.8691c.2871-2.3567.5744-4.7133.8691-7.1309l7.1308.8691.8691-7.1308Z" transform="translate(-2 -2)" style="fill:#fa7700"/><path d="M119.03,67.8307c-.5247,3.0578-1.71,13.2292-1.6682,14.2287l7.0161.8551c.2838-2.3286.5625-4.6165.8433-6.9042a.1981.1981,0,0,1,.0551-.0989.5664.5664,0,0,1,.098-.0706q7.0647.8608,14.1294,1.722l.8691-7.1309Z" transform="translate(-2 -2)" style="fill:#fa7700"/><path d="M144.8634,92.6053a.2009.2009,0,0,0,.0537-.1c.2806-2.2868.5592-4.574.8479-6.9429l7.1308.8691c.2876-2.3595.5752-4.719.8692-7.1308l-14.2618-1.7382L137.765,91.8245l7.001.8533A.5774.5774,0,0,0,144.8634,92.6053Z" transform="translate(-2 -2)" style="fill:#fa7700"/><path d="M150.1105,49.9084l-7.1309-.869c-.8751,7.18-1.7412,14.2864-2.6073,21.3925l7.1309.8691C148.3783,64.1208,149.2444,57.0146,150.1105,49.9084Z" transform="translate(-2 -2)" style="fill:#fa7700"/><path d="M106.6343,109.7407c-.2876,2.3595-.5751,4.719-.869,7.1308l14.2616,1.7382q.4347-3.5654.8692-7.1308l-7.1309-.8691c.2946-2.4176.5818-4.7742.8691-7.1309l-7.1309-.869C107.2088,105.0274,106.9216,107.384,106.6343,109.7407Z" transform="translate(-2 -2)" style="fill:#1d2e49"/><path d="M101.1656,94.5557c.0346-.019.0618-.0514.0447-.0365.5782-4.7435,1.1506-9.44,1.7252-14.1548l-7.0473-.8589c-.586,4.8077-1.1584,9.5046-1.7356,14.24,2.3289.2838,4.6163.5628,6.9039.84A.1978.1978,0,0,0,101.1656,94.5557Z" transform="translate(-2 -2)" style="fill:#fa7700"/><path d="M119.89,60.6457l7.0694.8616c.289-2.3711.5716-4.69.8584-7.0432l-7.0694-.8617C120.4656,55.9269,120.178,58.2866,119.89,60.6457Z" transform="translate(-2 -2)" style="fill:#fa7700"/><path d="M221.75,174.621a.2044.2044,0,0,0-.0266-.11c-.0183-.0354-.05-.0638-.0367-.0474l-7.0479-.8589c-.2839,2.3292-.5625,4.6163-.8432,6.9032a.1973.1973,0,0,1-.0554.0987c-.0269.0289-.0648.0474-.0469.0349l-14.1751-1.7277c.2836-2.3278.5626-4.6146.8394-6.9016a.2036.2036,0,0,0-.0277-.11c-.0187-.0351-.0508-.063-.036-.0455l-7.0089-.8542c-.6339,3.9151-1.7014,13.1558-1.6436,14.272l6.9975.8528c-.2838,2.3285-.5627,4.6155-.8395,6.9028a.2.2,0,0,0,.0289.1094.584.584,0,0,0,.0776.0929l7,.8532c.2878-2.361.5755-4.7219.8691-7.1309l21.3925,2.6073q.4347-3.5655.8691-7.1308l-7.1308-.8692C221.1946,179.1946,221.4736,176.9079,221.75,174.621Z" transform="translate(-2 -2)" style="fill:#fa7700"/><path d="M225.2038,145.8635c.58-4.7608,1.1558-9.4834,1.73-14.1947-2.3729-.2892-4.6934-.5721-7.046-.8587q-.8708,7.1449-1.73,14.1947Z" transform="translate(-2 -2)" style="fill:#fa7700"/><path d="M229.8,167.982a.2014.2014,0,0,0,.0282.11.5851.5851,0,0,0,.0771.0937l7.001.8532.8691-7.1308-7.1309-.8691C230.3555,163.4075,230.0766,165.6946,229.8,167.982Z" transform="translate(-2 -2)" style="fill:#fa7700"/><path d="M215.5551,166.3832l7.0693.8616c.289-2.3711.5716-4.69.8584-7.0432l-7.0693-.8616C216.13,161.6644,215.8425,164.0241,215.5551,166.3832Z" transform="translate(-2 -2)" style="fill:#fa7700"/><path d="M236.906,169.0386l-.8691,7.1309,7.1308.8691c.2873-2.3567.5745-4.7133.8692-7.1309Z" transform="translate(-2 -2)" style="fill:#fa7700"/><path d="M204.7281,136.17l7.1308.8691q.4347-3.5653.8691-7.1308l-7.1308-.8691C205.3026,131.4565,205.0153,133.8131,204.7281,136.17Z" transform="translate(-2 -2)" style="fill:#ef0d00"/><path d="M150.1105,49.9084c-.8661,7.1062-1.7322,14.2124-2.6073,21.3926l-7.1309-.8691-.8691,7.1309L153.765,79.301c-.294,2.4118-.5816,4.7713-.8692,7.1308,2.377.29,4.7539.5794,7.1506.8537.3031-2.34.5907-4.7.8814-7.0849l7.0433.8585-.8617,7.0694c-2.3591-.2876-4.7188-.5752-7.063-.843-.3094,2.3924-.5991,4.7694-.8888,7.1463q17.7357,2.1617,35.4717,4.3214a.195.195,0,0,0,.1086-.0316.5741.5741,0,0,0,.09-.0791q.4263-3.498.8527-6.9961l-7.1137-.867c.2912-2.3887.5738-4.7074.8659-7.1047l-7.148-.8712c.2971-2.4377.5847-4.7973.8544-7.1749q-10.6335-1.32-21.34-2.6168c.2866-2.352.57-4.6734.8589-7.0473l21.3228,2.5988c-.2868,2.3534-.5748,4.7159-.8412,7.0653q7.1577.8959,14.28,1.7561c.2872-2.3566.5744-4.7133.8691-7.1309,2.4175.2947,4.7742.582,7.1308.8691.29-2.3769.5794-4.7538.8537-7.1505-2.34-.3031-4.7-.5907-7.0849-.8814.2868-2.3536.5694-4.6722.8584-7.0433l7.0694.8617c-.2875,2.3591-.5751,4.7187-.8429,7.063,2.3491.3041,4.6827.5885,7.0164.8729a.5841.5841,0,0,1,.0771.0937.2017.2017,0,0,1,.0282.11c-.2769,2.2873-.5558,4.5744-.8445,6.9433l-7.1309-.8692c-.2872,2.3567-.5744,4.7133-.8691,7.1309l-7.1308-.8691L195.681,91.6464l7.1308.8691c-.2889,2.3709-.568,4.6587-.8448,6.9468a.1965.1965,0,0,0,.0306.109.5713.5713,0,0,0,.0786.0914l14.1282,1.7219c.8661-7.1062,1.7322-14.2124,2.6073-21.3926l7.1309.8691c.2872-2.3566.5744-4.7133.869-7.1309l7.1309.8691c.5769-4.7335,1.1539-9.467,1.7382-14.2617l14.2617,1.7382q.4346-3.5653.8691-7.1309l-21.3926-2.6073c.2937-2.4088.5814-4.77.8692-7.1308-2.3653-.2883-4.73-.5766-7.1381-.87-.2938,2.41-.5771,4.7348-.863,7.08l-7.1454-.8709c.2894-2.3747.5727-4.6989.8559-7.0223l-21.4069-2.609c-.29,2.382-.5736,4.7062-.862,7.073-2.3321-.2842-4.6212-.563-6.91-.844a.1965.1965,0,0,1-.0986-.0557,1.2354,1.2354,0,0,1-.1106-.1571c.2767-2.27.56-4.5935.8429-6.9156l-7.1057-.8659q-.4353,3.5724-.8611,7.0656l-7.0407-.8581c-.0261-.0745-.0535-.1124-.0494-.1464q.4086-3.3813.8205-6.7622a.2152.2152,0,0,0-.0234-.1113.587.587,0,0,0-.073-.0978l-14.14-1.7234c-.5765,4.7306-1.1531,9.4613-1.7382,14.2617Z" transform="translate(-2 -2)" style="fill:#fc9100"/><path d="M152.8958,86.4318l-7.1308-.8691c-.2887,2.3689-.5673,4.6561-.8479,6.9429a.2009.2009,0,0,1-.0537.1.5774.5774,0,0,1-.0974.0725l-7.001-.8533c-.2872,2.3567-.5744,4.7133-.8691,7.1309l7.1309.8691,14.2617,1.7381.8691-7.1308-7.1309-.8691C152.3214,91.1451,152.6086,88.7885,152.8958,86.4318Z" transform="translate(-2 -2)" style="fill:#fc9100"/><path d="M120.0269,118.61l7.1309.8691.8691-7.1308c.5777-4.74,1.1553-9.4791,1.7382-14.2618-2.3665-.2883-4.6539-.5673-6.9415-.8443a.2038.2038,0,0,0-.11.0269.5839.5839,0,0,0-.0949.0765l-.8535,7.0027q-.4344,3.5655-.869,7.1309T120.0269,118.61Z" transform="translate(-2 -2)" style="fill:#fc9100"/><path d="M250.4672,293.715a.2016.2016,0,0,0,.11-.0281.5858.5858,0,0,0,.0936-.0773l.8533-7.0009-14.2618-1.7382q-.869,7.1309-1.7381,14.2617l7.1308.8691c.2881-2.3636.5762-4.7272.8691-7.1309C245.8928,293.1592,248.18,293.4381,250.4672,293.715Z" transform="translate(-2 -2)" style="fill:#fc9100"/><path d="M221.2623,297.394c-.2887,2.3686-.5677,4.6565-.8446,6.9447a.198.198,0,0,0,.0291.1094.5736.5736,0,0,0,.0777.0928l14.13,1.7222.8691-7.1309Z" transform="translate(-2 -2)" style="fill:#fc9100"/><path d="M312.7381,199.9913l-7.1309-.8692Q304.3037,209.8185,303,220.5147l7.1309.8691,7.1309.8691c.2946-2.4176.5819-4.7742.8691-7.1308L311,214.253C311.5765,209.5223,312.153,204.7917,312.7381,199.9913Z" transform="translate(-2 -2)" style="fill:#fc9100"/><path d="M106.3,290.6193l7.1309.8692,1.7382-14.2618-7.1309-.8691C107.4611,281.0883,106.8846,285.8189,106.3,290.6193Z" transform="translate(-2 -2)" style="fill:#fa7700"/><path d="M59.7064,197.9088a.2005.2005,0,0,0,.0282.11.58.58,0,0,0,.0771.0937l7.001.8532.8691-7.1308-7.1309-.8691C60.2622,193.3343,59.9833,195.6214,59.7064,197.9088Z" transform="translate(-2 -2)" style="fill:#fc9100"/><path d="M202.1208,157.5623c.2872-2.3566.5745-4.7132.8691-7.1308-2.4176-.2947-4.7742-.582-7.1308-.8691q-.4347,3.5653-.8691,7.1308Z" transform="translate(-2 -2)" style="fill:#fc9100"/><path d="M253.2621,272.347c-.5844,4.7947-1.1613,9.5282-1.7382,14.2617l7.1308.8691c.2887-2.3689.5673-4.656.8479-6.9429a.2029.2029,0,0,1,.0537-.1.586.586,0,0,1,.0974-.0723l7.001.8532.8691-7.1309Z" transform="translate(-2 -2)" style="fill:#fc9100"/><path d="M170.812,117.5626l-7.1308-.8691-2.6073,21.3925,7.1308.8691q.4346-3.5653.8692-7.1308C169.65,127.0936,170.2269,122.363,170.812,117.5626Z" transform="translate(-2 -2)" style="fill:#fa7700"/><circle cx="157.0739" cy="141.2169" r="5.0796" transform="translate(-55.3776 157.2326) rotate(-46.8499)" style="fill:#fa7700"/><path d="M71.3362,221.2271l7.1309.8691.8691-7.1309-7.1309-.869C71.9181,216.4529,71.6309,218.81,71.3362,221.2271Z" transform="translate(-2 -2)" style="fill:#fa7700"/><path d="M276.3928,260.6926c-.2946,2.4176-.5818,4.7742-.8691,7.1308l7.1309.8691.8691-7.1309Z" transform="translate(-2 -2)" style="fill:#fc9100"/><path d="M268.3929,266.9543c-.2947,2.4176-.5819,4.7742-.8691,7.1308l7.1309.8692q.4344-3.5655.869-7.1309Z" transform="translate(-2 -2)" style="fill:#fc9100"/><path d="M157.0846,289.5721c-.2872,2.3567-.5745,4.7133-.8691,7.1309l7.1308.8691c.2872-2.3566.5745-4.7133.8692-7.1308Z" transform="translate(-2 -2)" style="fill:#fa7700"/><path d="M57.1161,219.4408l7.0694.8616c.289-2.3711.5716-4.69.8584-7.0432l-7.0694-.8617C57.6912,214.722,57.4036,217.0817,57.1161,219.4408Z" transform="translate(-2 -2)" style="fill:#fa7700"/><path d="M259.3458,222.431c-.2947,2.4176-.5819,4.7742-.8692,7.1308l7.1309.8692.8691-7.1309Z" transform="translate(-2 -2)" style="fill:#fa7700"/><path d="M120.8961,111.4789q.4344-3.5655.869-7.1309l-7.1308-.8691c-.2873,2.3567-.5745,4.7133-.8691,7.1309Z" transform="translate(-2 -2)" style="fill:#e5e7ea"/><path d="M183.1575,75.6465l-.8723,7.157,7.148.8712c-.2921,2.3973-.5747,4.716-.8659,7.1047l7.1137.867,1.7382-14.2617Z" transform="translate(-2 -2)" style="fill:#fa7700"/><path d="M183.9808,68.5633,162.658,65.9645c-.2893,2.3739-.5723,4.6953-.8589,7.0473l21.3228,2.5989C183.406,73.2792,183.694,70.9167,183.9808,68.5633Z" transform="translate(-2 -2)" style="fill:#fa7700"/><path d="M207.1157,56.9094l-7.0694-.8617c-.289,2.3711-.5716,4.69-.8584,7.0433l7.0694.8616C206.5406,61.6281,206.8282,59.2685,207.1157,56.9094Z" transform="translate(-2 -2)" style="fill:#fa7700"/><path d="M152.8958,86.4318c-.2872,2.3567-.5744,4.7133-.8691,7.1309l7.1309.8691.8691-7.1308Z" transform="translate(-2 -2)" style="fill:#fa7700"/><path d="M167.1094,88.1285l.8617-7.0694-7.0433-.8585q-.436,3.578-.8616,7.0694Z" transform="translate(-2 -2)" style="fill:#fa7700"/><circle cx="201.4191" cy="74.2538" r="5.0796" transform="matrix(0.0651, -0.9979, 0.9979, 0.0651, 112.2019, 268.408)" style="fill:#fa7700"/><path d="M213.3945,65.0488a.2017.2017,0,0,0-.0282-.11.5841.5841,0,0,0-.0771-.0937l-7.001-.8532-.8691,7.1308,7.1309.8692C212.8387,69.6232,213.1176,67.3361,213.3945,65.0488Z" transform="translate(-2 -2)" style="fill:#fa7700"/></svg>