<?xml version="1.0" encoding="UTF-8"?>
<!DOCTYPE svg PUBLIC "-//W3C//DTD SVG 1.1//EN" "http://www.w3.org/Graphics/SVG/1.1/DTD/svg11.dtd">
<svg viewBox="0 0 324 333" version="1.1" xmlns="http://www.w3.org/2000/svg" xmlns:xlink="http://www.w3.org/1999/xlink">
    <g id="Page-1" stroke="none" stroke-width="1" fill="none" fill-rule="evenodd">
        <g id="Artboard" transform="translate(-17.000000, -17.000000)">
            <g id="Group" transform="translate(17.000000, 17.000000)">
                <circle id="Oval" fill="#0E272B" cx="162" cy="162" r="162"></circle>
                <path d="M207.873047,316.953125 C207.034505,309.326823 204.054036,301.35612 198.931641,293.041016 C189.624349,234.274089 194.253255,195.285807 212.818359,176.076172 C240.666016,147.261719 268.936202,92.3425474 261.781905,76.7663755 C259.17025,69.69544 248.669689,66.863733 230.280222,68.2712545 C188.550439,57.2922411 157.817708,56.2128906 138.082031,65.0332031 C108.478516,78.2636719 85.6312066,103.174035 76.5820313,130.126953 C67.5328559,157.079871 53.1835938,219.027344 31.890625,261.595703 L45.3769531,289.417969 L113.050781,324 L168.0625,332.447266 L207.873047,316.953125 Z" id="Path" fill="#FE9F00"></path>
                <circle id="Oval" cx="162" cy="162" r="162"></circle>
                <path d="" id="Path-2" stroke="#979797"></path>
                <path d="M261.002604,75.2519531 C269.03776,88.827691 262.452908,110.326063 241.248047,139.74707 C209.440755,183.878581 195.154084,202.729958 195.154084,219.414854 C183.18707,227.788118 175.930126,235.455218 173.383251,242.416156 C163.360681,218.906607 148.091584,202.558951 127.575959,193.373187 C107.060334,184.187423 96.2016809,170.432215 95,152.107562 C97.5480351,113.544194 115.809032,91.308083 149.78299,85.3992289 C197.78299,87.0554789 193.998372,105.945475 247.700195,90.9155273 C257.767795,88.3918728 261.901096,83.4162869 260.100098,75.9887695 C259.729872,73.543674 260.030707,73.2980686 261.002604,75.2519531 Z" id="Path-3" fill="#F36B1F"></path>
                <circle id="Oval" fill="#212E44" cx="138.5" cy="127.5" r="11.5"></circle>
                <circle id="Oval" fill="#F2F2F5" cx="134" cy="127" r="3"></circle>
            </g>
        </g>
    </g>
</svg>